G04 #@! TF.GenerationSoftware,KiCad,Pcbnew,5.1.5+dfsg1-2build2*
G04 #@! TF.CreationDate,2020-11-29T01:09:51-05:00*
G04 #@! TF.ProjectId,goldfish,676f6c64-6669-4736-982e-6b696361645f,rev?*
G04 #@! TF.SameCoordinates,Original*
G04 #@! TF.FileFunction,Copper,L4,Bot*
G04 #@! TF.FilePolarity,Positive*
%FSLAX46Y46*%
G04 Gerber Fmt 4.6, Leading zero omitted, Abs format (unit mm)*
G04 Created by KiCad (PCBNEW 5.1.5+dfsg1-2build2) date 2020-11-29 01:09:51*
%MOMM*%
%LPD*%
G04 APERTURE LIST*
%ADD10C,1.700000*%
%ADD11O,1.000000X2.100000*%
%ADD12O,1.000000X1.600000*%
%ADD13C,0.800000*%
%ADD14C,0.127000*%
G04 APERTURE END LIST*
D10*
X37620000Y-55240000D03*
X37620000Y-52700000D03*
X37620000Y-50160000D03*
X37620000Y-47620000D03*
X37620000Y-45080000D03*
X37620000Y-42540000D03*
X37620000Y-40000000D03*
X37620000Y-37460000D03*
X37620000Y-34920000D03*
X37620000Y-32380000D03*
X37620000Y-29840000D03*
X37620000Y-27300000D03*
D11*
X33920000Y-29540000D03*
X25280000Y-29540000D03*
D12*
X33920000Y-25360000D03*
X25280000Y-25360000D03*
D10*
X22380000Y-27300000D03*
X22380000Y-29840000D03*
X22380000Y-32380000D03*
X22380000Y-34920000D03*
X22380000Y-37460000D03*
X22380000Y-40000000D03*
X22380000Y-42540000D03*
X22380000Y-45080000D03*
X22380000Y-47620000D03*
X22380000Y-50160000D03*
X22380000Y-52700000D03*
X22380000Y-55240000D03*
X24920000Y-55250000D03*
X27460000Y-55250000D03*
X30000000Y-55250000D03*
X32540000Y-55250000D03*
X35080000Y-55250000D03*
D13*
X31550000Y-43140000D03*
X29780000Y-43120000D03*
X32580000Y-44110000D03*
X33490000Y-45010000D03*
X30540000Y-42460000D03*
X30880000Y-46020000D03*
X29840000Y-45150000D03*
X28850000Y-44120000D03*
X28030000Y-45040000D03*
X28850000Y-45910000D03*
X29750000Y-46880000D03*
X30670000Y-47750000D03*
X30730000Y-44130000D03*
X31620000Y-44980000D03*
X32530000Y-45940000D03*
X31580000Y-46840000D03*
X31050000Y-36591600D03*
X28500000Y-53230000D03*
X34410000Y-39130000D03*
X33620000Y-38360000D03*
X26070000Y-48030000D03*
X30920000Y-51070000D03*
X27510000Y-40100000D03*
X25500000Y-47570000D03*
X35856400Y-44078900D03*
X31660200Y-39230200D03*
X35230000Y-36680000D03*
X24060000Y-36220000D03*
X32504900Y-51033457D03*
X25647919Y-46654865D03*
X27150000Y-32828100D03*
X32709800Y-33523300D03*
X34822800Y-51586000D03*
X36262954Y-47274677D03*
X25310000Y-43510002D03*
X26001034Y-45165366D03*
X26094400Y-42916800D03*
X35566400Y-40267900D03*
X24500200Y-40981400D03*
X27681100Y-50020500D03*
X28974800Y-49948700D03*
X28386700Y-48918700D03*
X27688500Y-48279500D03*
X33036000Y-48901400D03*
X35110000Y-48390000D03*
X31929700Y-51828900D03*
X23318300Y-41511500D03*
X30577300Y-40402800D03*
X33075900Y-52463000D03*
D14*
X34822800Y-51586000D02*
X34822800Y-52442800D01*
X34822800Y-52442800D02*
X37620000Y-55240000D01*
X30206058Y-43780000D02*
X29383942Y-43780000D01*
X29113944Y-43510002D02*
X25875685Y-43510002D01*
X34844677Y-47274677D02*
X31350000Y-43780000D01*
X30446559Y-43539499D02*
X30206058Y-43780000D01*
X29383942Y-43780000D02*
X29113944Y-43510002D01*
X31013441Y-43539499D02*
X30446559Y-43539499D01*
X31350000Y-43780000D02*
X31253942Y-43780000D01*
X31253942Y-43780000D02*
X31013441Y-43539499D01*
X36262954Y-47274677D02*
X34844677Y-47274677D01*
X25875685Y-43510002D02*
X25310000Y-43510002D01*
X37620000Y-50160000D02*
X36417919Y-50160000D01*
X26401033Y-45565365D02*
X26001034Y-45165366D01*
X30679368Y-49843700D02*
X26401033Y-45565365D01*
X36417919Y-50160000D02*
X36101619Y-49843700D01*
X36101619Y-49843700D02*
X30679368Y-49843700D01*
X27661200Y-41350000D02*
X26094400Y-42916800D01*
X35869300Y-46520900D02*
X30698400Y-41350000D01*
X36520900Y-46520900D02*
X35869300Y-46520900D01*
X37620000Y-47620000D02*
X36520900Y-46520900D01*
X30698400Y-41350000D02*
X27661200Y-41350000D01*
X37620000Y-37460000D02*
X35566400Y-39513600D01*
X35566400Y-39513600D02*
X35566400Y-40267900D01*
X29620400Y-35861200D02*
X34138800Y-35861200D01*
X34138800Y-35861200D02*
X37620000Y-32380000D01*
X24500200Y-40981400D02*
X29620400Y-35861200D01*
X20770700Y-28909300D02*
X20770700Y-47574300D01*
X20770700Y-47574300D02*
X22176400Y-48980000D01*
X23000000Y-48980000D02*
X23469100Y-49449100D01*
X27281101Y-49620501D02*
X27681100Y-50020500D01*
X23469100Y-49449100D02*
X25197485Y-49449100D01*
X27110090Y-49449490D02*
X27281101Y-49620501D01*
X22380000Y-27300000D02*
X20770700Y-28909300D01*
X25197875Y-49449490D02*
X27110090Y-49449490D01*
X22176400Y-48980000D02*
X23000000Y-48980000D01*
X25197485Y-49449100D02*
X25197875Y-49449490D01*
X22380000Y-29840000D02*
X23502100Y-30962100D01*
X23502100Y-30962100D02*
X37739700Y-30962100D01*
X37739700Y-30962100D02*
X38676700Y-31899100D01*
X38676700Y-31899100D02*
X38676700Y-50575300D01*
X38676700Y-50575300D02*
X38051100Y-51200900D01*
X38051100Y-51200900D02*
X35760600Y-51200900D01*
X35760600Y-51200900D02*
X34657800Y-50098100D01*
X34657800Y-50098100D02*
X29124200Y-50098100D01*
X29124200Y-50098100D02*
X28974800Y-49948700D01*
X21033400Y-45571000D02*
X22041500Y-46579100D01*
X22380000Y-37460000D02*
X21033400Y-38806600D01*
X25385837Y-48918997D02*
X25408308Y-48941468D01*
X25408308Y-48941468D02*
X27798247Y-48941468D01*
X25335830Y-48918997D02*
X25385837Y-48918997D01*
X27821015Y-48918700D02*
X28386700Y-48918700D01*
X22041500Y-46579100D02*
X22995933Y-46579100D01*
X21033400Y-38806600D02*
X21033400Y-45571000D01*
X27798247Y-48941468D02*
X27821015Y-48918700D01*
X22995933Y-46579100D02*
X25335830Y-48918997D01*
X27688500Y-48279500D02*
X27280543Y-48687457D01*
X25513522Y-48687457D02*
X25126566Y-48300501D01*
X25076559Y-48300501D02*
X23100758Y-46324700D01*
X21530001Y-40849999D02*
X22380000Y-40000000D01*
X21287800Y-41092200D02*
X21530001Y-40849999D01*
X22146800Y-46324700D02*
X21287800Y-45465700D01*
X27280543Y-48687457D02*
X25513522Y-48687457D01*
X23100758Y-46324700D02*
X22146800Y-46324700D01*
X21287800Y-45465700D02*
X21287800Y-41092200D01*
X25126566Y-48300501D02*
X25076559Y-48300501D01*
X30931400Y-48901400D02*
X32470315Y-48901400D01*
X32470315Y-48901400D02*
X33036000Y-48901400D01*
X22380000Y-42540000D02*
X23954011Y-44114011D01*
X23954011Y-44114011D02*
X26144011Y-44114011D01*
X26144011Y-44114011D02*
X30931400Y-48901400D01*
X34710001Y-48789999D02*
X35110000Y-48390000D01*
X31178676Y-49507900D02*
X33992100Y-49507900D01*
X26038798Y-44368022D02*
X31178676Y-49507900D01*
X22380000Y-45080000D02*
X23091978Y-44368022D01*
X23091978Y-44368022D02*
X26038798Y-44368022D01*
X33992100Y-49507900D02*
X34710001Y-48789999D01*
X27727779Y-49195479D02*
X28362700Y-49830400D01*
X25280623Y-49173008D02*
X25303094Y-49195479D01*
X28362700Y-49830400D02*
X28362700Y-50172000D01*
X22380000Y-47620000D02*
X23933008Y-49173008D01*
X23933008Y-49173008D02*
X25280623Y-49173008D01*
X25303094Y-49195479D02*
X27727779Y-49195479D01*
X31364015Y-51828900D02*
X31929700Y-51828900D01*
X30019600Y-51828900D02*
X31364015Y-51828900D01*
X28362700Y-50172000D02*
X30019600Y-51828900D01*
X30177301Y-40802799D02*
X30577300Y-40402800D01*
X29884111Y-41095989D02*
X30177301Y-40802799D01*
X26740476Y-41911499D02*
X27555986Y-41095989D01*
X23318300Y-41511500D02*
X23718299Y-41911499D01*
X27555986Y-41095989D02*
X29884111Y-41095989D01*
X23718299Y-41911499D02*
X26740476Y-41911499D01*
X22380000Y-55240000D02*
X23430900Y-56290900D01*
X23430900Y-56290900D02*
X27934900Y-56290900D01*
X27934900Y-56290900D02*
X28640000Y-55585800D01*
X28640000Y-55585800D02*
X28640000Y-55066700D01*
X28640000Y-55066700D02*
X31243700Y-52463000D01*
X31243700Y-52463000D02*
X33075900Y-52463000D01*
M02*
