M48
; DRILL file {KiCad 5.1.5+dfsg1-2build2} date Sun 29 Nov 2020 01:09:37 AM EST
; FORMAT={-:-/ absolute / inch / decimal}
; #@! TF.CreationDate,2020-11-29T01:09:37-05:00
; #@! TF.GenerationSoftware,Kicad,Pcbnew,5.1.5+dfsg1-2build2
; #@! TF.FileFunction,Plated,1,4,PTH
FMAT,2
INCH
T1C0.0157
T2C0.0236
T3C0.0394
%
G90
G05
T1
X0.918Y-1.6343
X0.9472Y-1.426
X0.9646Y-1.6134
X0.9965Y-1.713
X1.0039Y-1.8728
X1.0098Y-1.8368
X1.0237Y-1.7782
X1.0264Y-1.8909
X1.0273Y-1.6896
X1.0689Y-1.2924
X1.0831Y-1.5787
X1.0898Y-1.9693
X1.0901Y-1.9008
X1.1035Y-1.7732
X1.1176Y-1.9259
X1.122Y-2.0957
X1.1358Y-1.737
X1.1358Y-1.8075
X1.1407Y-1.9665
X1.1713Y-1.8457
X1.1724Y-1.6976
X1.1748Y-1.7776
X1.2024Y-1.6717
X1.2038Y-1.5907
X1.2075Y-1.8799
X1.2098Y-1.7374
X1.2157Y-1.8118
X1.2173Y-2.0106
X1.2224Y-1.4406
X1.2421Y-1.6984
X1.2433Y-1.8441
X1.2449Y-1.7709
X1.2465Y-1.5445
X1.2571Y-2.0405
X1.2797Y-2.0092
X1.2807Y-1.8087
X1.2827Y-1.7366
X1.2878Y-1.3198
X1.3006Y-1.9253
X1.3022Y-2.0655
X1.3185Y-1.772
X1.3236Y-1.5102
X1.3547Y-1.5406
X1.371Y-2.0309
X1.3823Y-1.9051
X1.387Y-1.4441
X1.4003Y-1.5854
X1.4117Y-1.7354
X1.4277Y-1.8612
T3
X0.8811Y-1.0748
X0.8811Y-1.1748
X0.8811Y-1.2748
X0.8811Y-1.3748
X0.8811Y-1.4748
X0.8811Y-1.5748
X0.8811Y-1.6748
X0.8811Y-1.7748
X0.8811Y-1.8748
X0.8811Y-1.9748
X0.8811Y-2.0748
X0.8811Y-2.1748
X1.4811Y-1.0748
X1.4811Y-1.1748
X1.4811Y-1.2748
X1.4811Y-1.3748
X1.4811Y-1.4748
X1.4811Y-1.5748
X1.4811Y-1.6748
X1.4811Y-1.7748
X1.4811Y-1.8748
X1.4811Y-1.9748
X1.4811Y-2.0748
X1.4811Y-2.1748
X0.9811Y-2.1752
X1.0811Y-2.1752
X1.1811Y-2.1752
X1.2811Y-2.1752
X1.3811Y-2.1752
T2
G00X0.9953Y-1.0102
M15
G01X0.9953Y-0.9866
M16
G05
G00X0.9953Y-1.1846
M15
G01X0.9953Y-1.1413
M16
G05
G00X1.3354Y-1.0102
M15
G01X1.3354Y-0.9866
M16
G05
G00X1.3354Y-1.1846
M15
G01X1.3354Y-1.1413
M16
G05
T0
M30
