G04 #@! TF.GenerationSoftware,KiCad,Pcbnew,5.1.5+dfsg1-2build2*
G04 #@! TF.CreationDate,2020-11-29T01:09:51-05:00*
G04 #@! TF.ProjectId,goldfish,676f6c64-6669-4736-982e-6b696361645f,rev?*
G04 #@! TF.SameCoordinates,Original*
G04 #@! TF.FileFunction,Legend,Top*
G04 #@! TF.FilePolarity,Positive*
%FSLAX46Y46*%
G04 Gerber Fmt 4.6, Leading zero omitted, Abs format (unit mm)*
G04 Created by KiCad (PCBNEW 5.1.5+dfsg1-2build2) date 2020-11-29 01:09:51*
%MOMM*%
%LPD*%
G04 APERTURE LIST*
%ADD10C,0.120000*%
%ADD11C,0.125000*%
%ADD12C,0.150000*%
G04 APERTURE END LIST*
D10*
X26945000Y-53750000D02*
X26945000Y-49750000D01*
X23795000Y-53750000D02*
X26945000Y-53750000D01*
X26970000Y-37740000D02*
X24970000Y-37740000D01*
X26970000Y-37740000D02*
X26970000Y-34540000D01*
X24970000Y-34540000D02*
X24970000Y-37740000D01*
X30286267Y-34710000D02*
X29943733Y-34710000D01*
X30286267Y-35730000D02*
X29943733Y-35730000D01*
X30253733Y-34060000D02*
X30596267Y-34060000D01*
X30253733Y-33040000D02*
X30596267Y-33040000D01*
X31212652Y-40407341D02*
X30700000Y-39894689D01*
X30700000Y-50105311D02*
X31212652Y-49592659D01*
X30187348Y-49592659D02*
X30700000Y-50105311D01*
X25594689Y-45000000D02*
X26107341Y-44487348D01*
X26107341Y-45512652D02*
X25594689Y-45000000D01*
X35805311Y-45000000D02*
X35292659Y-45512652D01*
X35292659Y-44487348D02*
X35805311Y-45000000D01*
D11*
X39346190Y-28216666D02*
X39846190Y-28050000D01*
X39346190Y-27883333D01*
X39584285Y-27550000D02*
X39608095Y-27478571D01*
X39631904Y-27454761D01*
X39679523Y-27430952D01*
X39750952Y-27430952D01*
X39798571Y-27454761D01*
X39822380Y-27478571D01*
X39846190Y-27526190D01*
X39846190Y-27716666D01*
X39346190Y-27716666D01*
X39346190Y-27550000D01*
X39370000Y-27502380D01*
X39393809Y-27478571D01*
X39441428Y-27454761D01*
X39489047Y-27454761D01*
X39536666Y-27478571D01*
X39560476Y-27502380D01*
X39584285Y-27550000D01*
X39584285Y-27716666D01*
X39346190Y-27216666D02*
X39750952Y-27216666D01*
X39798571Y-27192857D01*
X39822380Y-27169047D01*
X39846190Y-27121428D01*
X39846190Y-27026190D01*
X39822380Y-26978571D01*
X39798571Y-26954761D01*
X39750952Y-26930952D01*
X39346190Y-26930952D01*
X39822380Y-26716666D02*
X39846190Y-26645238D01*
X39846190Y-26526190D01*
X39822380Y-26478571D01*
X39798571Y-26454761D01*
X39750952Y-26430952D01*
X39703333Y-26430952D01*
X39655714Y-26454761D01*
X39631904Y-26478571D01*
X39608095Y-26526190D01*
X39584285Y-26621428D01*
X39560476Y-26669047D01*
X39536666Y-26692857D01*
X39489047Y-26716666D01*
X39441428Y-26716666D01*
X39393809Y-26692857D01*
X39370000Y-26669047D01*
X39346190Y-26621428D01*
X39346190Y-26502380D01*
X39370000Y-26430952D01*
X39370000Y-30220952D02*
X39346190Y-30268571D01*
X39346190Y-30340000D01*
X39370000Y-30411428D01*
X39417619Y-30459047D01*
X39465238Y-30482857D01*
X39560476Y-30506666D01*
X39631904Y-30506666D01*
X39727142Y-30482857D01*
X39774761Y-30459047D01*
X39822380Y-30411428D01*
X39846190Y-30340000D01*
X39846190Y-30292380D01*
X39822380Y-30220952D01*
X39798571Y-30197142D01*
X39631904Y-30197142D01*
X39631904Y-30292380D01*
X39846190Y-29982857D02*
X39346190Y-29982857D01*
X39846190Y-29697142D01*
X39346190Y-29697142D01*
X39846190Y-29459047D02*
X39346190Y-29459047D01*
X39346190Y-29340000D01*
X39370000Y-29268571D01*
X39417619Y-29220952D01*
X39465238Y-29197142D01*
X39560476Y-29173333D01*
X39631904Y-29173333D01*
X39727142Y-29197142D01*
X39774761Y-29220952D01*
X39822380Y-29268571D01*
X39846190Y-29340000D01*
X39846190Y-29459047D01*
X39097500Y-33058571D02*
X39097500Y-32558571D01*
X39846190Y-32653809D02*
X39608095Y-32820476D01*
X39846190Y-32939523D02*
X39346190Y-32939523D01*
X39346190Y-32749047D01*
X39370000Y-32701428D01*
X39393809Y-32677619D01*
X39441428Y-32653809D01*
X39512857Y-32653809D01*
X39560476Y-32677619D01*
X39584285Y-32701428D01*
X39608095Y-32749047D01*
X39608095Y-32939523D01*
X39097500Y-32558571D02*
X39097500Y-32082380D01*
X39822380Y-32463333D02*
X39846190Y-32391904D01*
X39846190Y-32272857D01*
X39822380Y-32225238D01*
X39798571Y-32201428D01*
X39750952Y-32177619D01*
X39703333Y-32177619D01*
X39655714Y-32201428D01*
X39631904Y-32225238D01*
X39608095Y-32272857D01*
X39584285Y-32368095D01*
X39560476Y-32415714D01*
X39536666Y-32439523D01*
X39489047Y-32463333D01*
X39441428Y-32463333D01*
X39393809Y-32439523D01*
X39370000Y-32415714D01*
X39346190Y-32368095D01*
X39346190Y-32249047D01*
X39370000Y-32177619D01*
X39097500Y-32082380D02*
X39097500Y-31701428D01*
X39346190Y-32034761D02*
X39346190Y-31749047D01*
X39846190Y-31891904D02*
X39346190Y-31891904D01*
X39346190Y-35586666D02*
X39846190Y-35420000D01*
X39346190Y-35253333D01*
X39798571Y-34800952D02*
X39822380Y-34824761D01*
X39846190Y-34896190D01*
X39846190Y-34943809D01*
X39822380Y-35015238D01*
X39774761Y-35062857D01*
X39727142Y-35086666D01*
X39631904Y-35110476D01*
X39560476Y-35110476D01*
X39465238Y-35086666D01*
X39417619Y-35062857D01*
X39370000Y-35015238D01*
X39346190Y-34943809D01*
X39346190Y-34896190D01*
X39370000Y-34824761D01*
X39393809Y-34800952D01*
X39798571Y-34300952D02*
X39822380Y-34324761D01*
X39846190Y-34396190D01*
X39846190Y-34443809D01*
X39822380Y-34515238D01*
X39774761Y-34562857D01*
X39727142Y-34586666D01*
X39631904Y-34610476D01*
X39560476Y-34610476D01*
X39465238Y-34586666D01*
X39417619Y-34562857D01*
X39370000Y-34515238D01*
X39346190Y-34443809D01*
X39346190Y-34396190D01*
X39370000Y-34324761D01*
X39393809Y-34300952D01*
X39846190Y-38043333D02*
X39346190Y-38043333D01*
X39346190Y-37852857D01*
X39370000Y-37805238D01*
X39393809Y-37781428D01*
X39441428Y-37757619D01*
X39512857Y-37757619D01*
X39560476Y-37781428D01*
X39584285Y-37805238D01*
X39608095Y-37852857D01*
X39608095Y-38043333D01*
X39584285Y-37376666D02*
X39584285Y-37543333D01*
X39846190Y-37543333D02*
X39346190Y-37543333D01*
X39346190Y-37305238D01*
X39512857Y-36900476D02*
X39846190Y-36900476D01*
X39322380Y-37019523D02*
X39679523Y-37138571D01*
X39679523Y-36829047D01*
X39846190Y-40583333D02*
X39346190Y-40583333D01*
X39346190Y-40392857D01*
X39370000Y-40345238D01*
X39393809Y-40321428D01*
X39441428Y-40297619D01*
X39512857Y-40297619D01*
X39560476Y-40321428D01*
X39584285Y-40345238D01*
X39608095Y-40392857D01*
X39608095Y-40583333D01*
X39584285Y-39916666D02*
X39584285Y-40083333D01*
X39846190Y-40083333D02*
X39346190Y-40083333D01*
X39346190Y-39845238D01*
X39346190Y-39416666D02*
X39346190Y-39654761D01*
X39584285Y-39678571D01*
X39560476Y-39654761D01*
X39536666Y-39607142D01*
X39536666Y-39488095D01*
X39560476Y-39440476D01*
X39584285Y-39416666D01*
X39631904Y-39392857D01*
X39750952Y-39392857D01*
X39798571Y-39416666D01*
X39822380Y-39440476D01*
X39846190Y-39488095D01*
X39846190Y-39607142D01*
X39822380Y-39654761D01*
X39798571Y-39678571D01*
X39846190Y-43123333D02*
X39346190Y-43123333D01*
X39346190Y-42932857D01*
X39370000Y-42885238D01*
X39393809Y-42861428D01*
X39441428Y-42837619D01*
X39512857Y-42837619D01*
X39560476Y-42861428D01*
X39584285Y-42885238D01*
X39608095Y-42932857D01*
X39608095Y-43123333D01*
X39584285Y-42456666D02*
X39584285Y-42623333D01*
X39846190Y-42623333D02*
X39346190Y-42623333D01*
X39346190Y-42385238D01*
X39346190Y-41980476D02*
X39346190Y-42075714D01*
X39370000Y-42123333D01*
X39393809Y-42147142D01*
X39465238Y-42194761D01*
X39560476Y-42218571D01*
X39750952Y-42218571D01*
X39798571Y-42194761D01*
X39822380Y-42170952D01*
X39846190Y-42123333D01*
X39846190Y-42028095D01*
X39822380Y-41980476D01*
X39798571Y-41956666D01*
X39750952Y-41932857D01*
X39631904Y-41932857D01*
X39584285Y-41956666D01*
X39560476Y-41980476D01*
X39536666Y-42028095D01*
X39536666Y-42123333D01*
X39560476Y-42170952D01*
X39584285Y-42194761D01*
X39631904Y-42218571D01*
X39846190Y-45663333D02*
X39346190Y-45663333D01*
X39346190Y-45472857D01*
X39370000Y-45425238D01*
X39393809Y-45401428D01*
X39441428Y-45377619D01*
X39512857Y-45377619D01*
X39560476Y-45401428D01*
X39584285Y-45425238D01*
X39608095Y-45472857D01*
X39608095Y-45663333D01*
X39584285Y-44996666D02*
X39584285Y-45163333D01*
X39846190Y-45163333D02*
X39346190Y-45163333D01*
X39346190Y-44925238D01*
X39346190Y-44782380D02*
X39346190Y-44449047D01*
X39846190Y-44663333D01*
X39846190Y-48239047D02*
X39346190Y-48239047D01*
X39346190Y-48048571D01*
X39370000Y-48000952D01*
X39393809Y-47977142D01*
X39441428Y-47953333D01*
X39512857Y-47953333D01*
X39560476Y-47977142D01*
X39584285Y-48000952D01*
X39608095Y-48048571D01*
X39608095Y-48239047D01*
X39584285Y-47572380D02*
X39608095Y-47500952D01*
X39631904Y-47477142D01*
X39679523Y-47453333D01*
X39750952Y-47453333D01*
X39798571Y-47477142D01*
X39822380Y-47500952D01*
X39846190Y-47548571D01*
X39846190Y-47739047D01*
X39346190Y-47739047D01*
X39346190Y-47572380D01*
X39370000Y-47524761D01*
X39393809Y-47500952D01*
X39441428Y-47477142D01*
X39489047Y-47477142D01*
X39536666Y-47500952D01*
X39560476Y-47524761D01*
X39584285Y-47572380D01*
X39584285Y-47739047D01*
X39846190Y-46977142D02*
X39846190Y-47262857D01*
X39846190Y-47120000D02*
X39346190Y-47120000D01*
X39417619Y-47167619D01*
X39465238Y-47215238D01*
X39489047Y-47262857D01*
X39846190Y-50779047D02*
X39346190Y-50779047D01*
X39346190Y-50588571D01*
X39370000Y-50540952D01*
X39393809Y-50517142D01*
X39441428Y-50493333D01*
X39512857Y-50493333D01*
X39560476Y-50517142D01*
X39584285Y-50540952D01*
X39608095Y-50588571D01*
X39608095Y-50779047D01*
X39584285Y-50112380D02*
X39608095Y-50040952D01*
X39631904Y-50017142D01*
X39679523Y-49993333D01*
X39750952Y-49993333D01*
X39798571Y-50017142D01*
X39822380Y-50040952D01*
X39846190Y-50088571D01*
X39846190Y-50279047D01*
X39346190Y-50279047D01*
X39346190Y-50112380D01*
X39370000Y-50064761D01*
X39393809Y-50040952D01*
X39441428Y-50017142D01*
X39489047Y-50017142D01*
X39536666Y-50040952D01*
X39560476Y-50064761D01*
X39584285Y-50112380D01*
X39584285Y-50279047D01*
X39346190Y-49826666D02*
X39346190Y-49517142D01*
X39536666Y-49683809D01*
X39536666Y-49612380D01*
X39560476Y-49564761D01*
X39584285Y-49540952D01*
X39631904Y-49517142D01*
X39750952Y-49517142D01*
X39798571Y-49540952D01*
X39822380Y-49564761D01*
X39846190Y-49612380D01*
X39846190Y-49755238D01*
X39822380Y-49802857D01*
X39798571Y-49826666D01*
X39846190Y-55859047D02*
X39346190Y-55859047D01*
X39346190Y-55668571D01*
X39370000Y-55620952D01*
X39393809Y-55597142D01*
X39441428Y-55573333D01*
X39512857Y-55573333D01*
X39560476Y-55597142D01*
X39584285Y-55620952D01*
X39608095Y-55668571D01*
X39608095Y-55859047D01*
X39584285Y-55192380D02*
X39608095Y-55120952D01*
X39631904Y-55097142D01*
X39679523Y-55073333D01*
X39750952Y-55073333D01*
X39798571Y-55097142D01*
X39822380Y-55120952D01*
X39846190Y-55168571D01*
X39846190Y-55359047D01*
X39346190Y-55359047D01*
X39346190Y-55192380D01*
X39370000Y-55144761D01*
X39393809Y-55120952D01*
X39441428Y-55097142D01*
X39489047Y-55097142D01*
X39536666Y-55120952D01*
X39560476Y-55144761D01*
X39584285Y-55192380D01*
X39584285Y-55359047D01*
X39346190Y-54644761D02*
X39346190Y-54740000D01*
X39370000Y-54787619D01*
X39393809Y-54811428D01*
X39465238Y-54859047D01*
X39560476Y-54882857D01*
X39750952Y-54882857D01*
X39798571Y-54859047D01*
X39822380Y-54835238D01*
X39846190Y-54787619D01*
X39846190Y-54692380D01*
X39822380Y-54644761D01*
X39798571Y-54620952D01*
X39750952Y-54597142D01*
X39631904Y-54597142D01*
X39584285Y-54620952D01*
X39560476Y-54644761D01*
X39536666Y-54692380D01*
X39536666Y-54787619D01*
X39560476Y-54835238D01*
X39584285Y-54859047D01*
X39631904Y-54882857D01*
X39846190Y-53319047D02*
X39346190Y-53319047D01*
X39346190Y-53128571D01*
X39370000Y-53080952D01*
X39393809Y-53057142D01*
X39441428Y-53033333D01*
X39512857Y-53033333D01*
X39560476Y-53057142D01*
X39584285Y-53080952D01*
X39608095Y-53128571D01*
X39608095Y-53319047D01*
X39584285Y-52652380D02*
X39608095Y-52580952D01*
X39631904Y-52557142D01*
X39679523Y-52533333D01*
X39750952Y-52533333D01*
X39798571Y-52557142D01*
X39822380Y-52580952D01*
X39846190Y-52628571D01*
X39846190Y-52819047D01*
X39346190Y-52819047D01*
X39346190Y-52652380D01*
X39370000Y-52604761D01*
X39393809Y-52580952D01*
X39441428Y-52557142D01*
X39489047Y-52557142D01*
X39536666Y-52580952D01*
X39560476Y-52604761D01*
X39584285Y-52652380D01*
X39584285Y-52819047D01*
X39393809Y-52342857D02*
X39370000Y-52319047D01*
X39346190Y-52271428D01*
X39346190Y-52152380D01*
X39370000Y-52104761D01*
X39393809Y-52080952D01*
X39441428Y-52057142D01*
X39489047Y-52057142D01*
X39560476Y-52080952D01*
X39846190Y-52366666D01*
X39846190Y-52057142D01*
X23745238Y-54066190D02*
X24078571Y-54566190D01*
X24078571Y-54066190D02*
X23745238Y-54566190D01*
X24530952Y-54566190D02*
X24245238Y-54566190D01*
X24388095Y-54566190D02*
X24388095Y-54066190D01*
X24340476Y-54137619D01*
X24292857Y-54185238D01*
X24245238Y-54209047D01*
D12*
X24422380Y-36278095D02*
X23422380Y-36278095D01*
X23422380Y-36040000D01*
X23470000Y-35897142D01*
X23565238Y-35801904D01*
X23660476Y-35754285D01*
X23850952Y-35706666D01*
X23993809Y-35706666D01*
X24184285Y-35754285D01*
X24279523Y-35801904D01*
X24374761Y-35897142D01*
X24422380Y-36040000D01*
X24422380Y-36278095D01*
X24422380Y-34754285D02*
X24422380Y-35325714D01*
X24422380Y-35040000D02*
X23422380Y-35040000D01*
X23565238Y-35135238D01*
X23660476Y-35230476D01*
X23708095Y-35325714D01*
X28021904Y-28382380D02*
X28021904Y-29191904D01*
X28069523Y-29287142D01*
X28117142Y-29334761D01*
X28212380Y-29382380D01*
X28402857Y-29382380D01*
X28498095Y-29334761D01*
X28545714Y-29287142D01*
X28593333Y-29191904D01*
X28593333Y-28382380D01*
X29021904Y-29334761D02*
X29164761Y-29382380D01*
X29402857Y-29382380D01*
X29498095Y-29334761D01*
X29545714Y-29287142D01*
X29593333Y-29191904D01*
X29593333Y-29096666D01*
X29545714Y-29001428D01*
X29498095Y-28953809D01*
X29402857Y-28906190D01*
X29212380Y-28858571D01*
X29117142Y-28810952D01*
X29069523Y-28763333D01*
X29021904Y-28668095D01*
X29021904Y-28572857D01*
X29069523Y-28477619D01*
X29117142Y-28430000D01*
X29212380Y-28382380D01*
X29450476Y-28382380D01*
X29593333Y-28430000D01*
X30355238Y-28858571D02*
X30498095Y-28906190D01*
X30545714Y-28953809D01*
X30593333Y-29049047D01*
X30593333Y-29191904D01*
X30545714Y-29287142D01*
X30498095Y-29334761D01*
X30402857Y-29382380D01*
X30021904Y-29382380D01*
X30021904Y-28382380D01*
X30355238Y-28382380D01*
X30450476Y-28430000D01*
X30498095Y-28477619D01*
X30545714Y-28572857D01*
X30545714Y-28668095D01*
X30498095Y-28763333D01*
X30450476Y-28810952D01*
X30355238Y-28858571D01*
X30021904Y-28858571D01*
X31545714Y-29382380D02*
X30974285Y-29382380D01*
X31260000Y-29382380D02*
X31260000Y-28382380D01*
X31164761Y-28525238D01*
X31069523Y-28620476D01*
X30974285Y-28668095D01*
D11*
X28086666Y-35406190D02*
X27920000Y-35168095D01*
X27800952Y-35406190D02*
X27800952Y-34906190D01*
X27991428Y-34906190D01*
X28039047Y-34930000D01*
X28062857Y-34953809D01*
X28086666Y-35001428D01*
X28086666Y-35072857D01*
X28062857Y-35120476D01*
X28039047Y-35144285D01*
X27991428Y-35168095D01*
X27800952Y-35168095D01*
X28372380Y-35120476D02*
X28324761Y-35096666D01*
X28300952Y-35072857D01*
X28277142Y-35025238D01*
X28277142Y-35001428D01*
X28300952Y-34953809D01*
X28324761Y-34930000D01*
X28372380Y-34906190D01*
X28467619Y-34906190D01*
X28515238Y-34930000D01*
X28539047Y-34953809D01*
X28562857Y-35001428D01*
X28562857Y-35025238D01*
X28539047Y-35072857D01*
X28515238Y-35096666D01*
X28467619Y-35120476D01*
X28372380Y-35120476D01*
X28324761Y-35144285D01*
X28300952Y-35168095D01*
X28277142Y-35215714D01*
X28277142Y-35310952D01*
X28300952Y-35358571D01*
X28324761Y-35382380D01*
X28372380Y-35406190D01*
X28467619Y-35406190D01*
X28515238Y-35382380D01*
X28539047Y-35358571D01*
X28562857Y-35310952D01*
X28562857Y-35215714D01*
X28539047Y-35168095D01*
X28515238Y-35144285D01*
X28467619Y-35120476D01*
X28286666Y-33806190D02*
X28120000Y-33568095D01*
X28000952Y-33806190D02*
X28000952Y-33306190D01*
X28191428Y-33306190D01*
X28239047Y-33330000D01*
X28262857Y-33353809D01*
X28286666Y-33401428D01*
X28286666Y-33472857D01*
X28262857Y-33520476D01*
X28239047Y-33544285D01*
X28191428Y-33568095D01*
X28000952Y-33568095D01*
X28453333Y-33306190D02*
X28786666Y-33306190D01*
X28572380Y-33806190D01*
X20606190Y-55859047D02*
X20106190Y-55859047D01*
X20106190Y-55668571D01*
X20130000Y-55620952D01*
X20153809Y-55597142D01*
X20201428Y-55573333D01*
X20272857Y-55573333D01*
X20320476Y-55597142D01*
X20344285Y-55620952D01*
X20368095Y-55668571D01*
X20368095Y-55859047D01*
X20344285Y-55192380D02*
X20368095Y-55120952D01*
X20391904Y-55097142D01*
X20439523Y-55073333D01*
X20510952Y-55073333D01*
X20558571Y-55097142D01*
X20582380Y-55120952D01*
X20606190Y-55168571D01*
X20606190Y-55359047D01*
X20106190Y-55359047D01*
X20106190Y-55192380D01*
X20130000Y-55144761D01*
X20153809Y-55120952D01*
X20201428Y-55097142D01*
X20249047Y-55097142D01*
X20296666Y-55120952D01*
X20320476Y-55144761D01*
X20344285Y-55192380D01*
X20344285Y-55359047D01*
X20106190Y-54620952D02*
X20106190Y-54859047D01*
X20344285Y-54882857D01*
X20320476Y-54859047D01*
X20296666Y-54811428D01*
X20296666Y-54692380D01*
X20320476Y-54644761D01*
X20344285Y-54620952D01*
X20391904Y-54597142D01*
X20510952Y-54597142D01*
X20558571Y-54620952D01*
X20582380Y-54644761D01*
X20606190Y-54692380D01*
X20606190Y-54811428D01*
X20582380Y-54859047D01*
X20558571Y-54882857D01*
X20606190Y-53319047D02*
X20106190Y-53319047D01*
X20106190Y-53128571D01*
X20130000Y-53080952D01*
X20153809Y-53057142D01*
X20201428Y-53033333D01*
X20272857Y-53033333D01*
X20320476Y-53057142D01*
X20344285Y-53080952D01*
X20368095Y-53128571D01*
X20368095Y-53319047D01*
X20344285Y-52652380D02*
X20368095Y-52580952D01*
X20391904Y-52557142D01*
X20439523Y-52533333D01*
X20510952Y-52533333D01*
X20558571Y-52557142D01*
X20582380Y-52580952D01*
X20606190Y-52628571D01*
X20606190Y-52819047D01*
X20106190Y-52819047D01*
X20106190Y-52652380D01*
X20130000Y-52604761D01*
X20153809Y-52580952D01*
X20201428Y-52557142D01*
X20249047Y-52557142D01*
X20296666Y-52580952D01*
X20320476Y-52604761D01*
X20344285Y-52652380D01*
X20344285Y-52819047D01*
X20272857Y-52104761D02*
X20606190Y-52104761D01*
X20082380Y-52223809D02*
X20439523Y-52342857D01*
X20439523Y-52033333D01*
X20606190Y-50755238D02*
X20106190Y-50755238D01*
X20106190Y-50564761D01*
X20130000Y-50517142D01*
X20153809Y-50493333D01*
X20201428Y-50469523D01*
X20272857Y-50469523D01*
X20320476Y-50493333D01*
X20344285Y-50517142D01*
X20368095Y-50564761D01*
X20368095Y-50755238D01*
X20344285Y-50255238D02*
X20344285Y-50088571D01*
X20606190Y-50017142D02*
X20606190Y-50255238D01*
X20106190Y-50255238D01*
X20106190Y-50017142D01*
X20106190Y-49588571D02*
X20106190Y-49683809D01*
X20130000Y-49731428D01*
X20153809Y-49755238D01*
X20225238Y-49802857D01*
X20320476Y-49826666D01*
X20510952Y-49826666D01*
X20558571Y-49802857D01*
X20582380Y-49779047D01*
X20606190Y-49731428D01*
X20606190Y-49636190D01*
X20582380Y-49588571D01*
X20558571Y-49564761D01*
X20510952Y-49540952D01*
X20391904Y-49540952D01*
X20344285Y-49564761D01*
X20320476Y-49588571D01*
X20296666Y-49636190D01*
X20296666Y-49731428D01*
X20320476Y-49779047D01*
X20344285Y-49802857D01*
X20391904Y-49826666D01*
X20606190Y-48239047D02*
X20106190Y-48239047D01*
X20106190Y-48048571D01*
X20130000Y-48000952D01*
X20153809Y-47977142D01*
X20201428Y-47953333D01*
X20272857Y-47953333D01*
X20320476Y-47977142D01*
X20344285Y-48000952D01*
X20368095Y-48048571D01*
X20368095Y-48239047D01*
X20606190Y-47739047D02*
X20106190Y-47739047D01*
X20106190Y-47620000D01*
X20130000Y-47548571D01*
X20177619Y-47500952D01*
X20225238Y-47477142D01*
X20320476Y-47453333D01*
X20391904Y-47453333D01*
X20487142Y-47477142D01*
X20534761Y-47500952D01*
X20582380Y-47548571D01*
X20606190Y-47620000D01*
X20606190Y-47739047D01*
X20106190Y-47286666D02*
X20106190Y-46953333D01*
X20606190Y-47167619D01*
X20606190Y-45699047D02*
X20106190Y-45699047D01*
X20106190Y-45508571D01*
X20130000Y-45460952D01*
X20153809Y-45437142D01*
X20201428Y-45413333D01*
X20272857Y-45413333D01*
X20320476Y-45437142D01*
X20344285Y-45460952D01*
X20368095Y-45508571D01*
X20368095Y-45699047D01*
X20558571Y-44913333D02*
X20582380Y-44937142D01*
X20606190Y-45008571D01*
X20606190Y-45056190D01*
X20582380Y-45127619D01*
X20534761Y-45175238D01*
X20487142Y-45199047D01*
X20391904Y-45222857D01*
X20320476Y-45222857D01*
X20225238Y-45199047D01*
X20177619Y-45175238D01*
X20130000Y-45127619D01*
X20106190Y-45056190D01*
X20106190Y-45008571D01*
X20130000Y-44937142D01*
X20153809Y-44913333D01*
X20106190Y-44484761D02*
X20106190Y-44580000D01*
X20130000Y-44627619D01*
X20153809Y-44651428D01*
X20225238Y-44699047D01*
X20320476Y-44722857D01*
X20510952Y-44722857D01*
X20558571Y-44699047D01*
X20582380Y-44675238D01*
X20606190Y-44627619D01*
X20606190Y-44532380D01*
X20582380Y-44484761D01*
X20558571Y-44460952D01*
X20510952Y-44437142D01*
X20391904Y-44437142D01*
X20344285Y-44460952D01*
X20320476Y-44484761D01*
X20296666Y-44532380D01*
X20296666Y-44627619D01*
X20320476Y-44675238D01*
X20344285Y-44699047D01*
X20391904Y-44722857D01*
X20606190Y-43159047D02*
X20106190Y-43159047D01*
X20106190Y-42968571D01*
X20130000Y-42920952D01*
X20153809Y-42897142D01*
X20201428Y-42873333D01*
X20272857Y-42873333D01*
X20320476Y-42897142D01*
X20344285Y-42920952D01*
X20368095Y-42968571D01*
X20368095Y-43159047D01*
X20606190Y-42659047D02*
X20106190Y-42659047D01*
X20106190Y-42540000D01*
X20130000Y-42468571D01*
X20177619Y-42420952D01*
X20225238Y-42397142D01*
X20320476Y-42373333D01*
X20391904Y-42373333D01*
X20487142Y-42397142D01*
X20534761Y-42420952D01*
X20582380Y-42468571D01*
X20606190Y-42540000D01*
X20606190Y-42659047D01*
X20272857Y-41944761D02*
X20606190Y-41944761D01*
X20082380Y-42063809D02*
X20439523Y-42182857D01*
X20439523Y-41873333D01*
X20606190Y-40619047D02*
X20106190Y-40619047D01*
X20106190Y-40428571D01*
X20130000Y-40380952D01*
X20153809Y-40357142D01*
X20201428Y-40333333D01*
X20272857Y-40333333D01*
X20320476Y-40357142D01*
X20344285Y-40380952D01*
X20368095Y-40428571D01*
X20368095Y-40619047D01*
X20606190Y-40119047D02*
X20106190Y-40119047D01*
X20106190Y-40000000D01*
X20130000Y-39928571D01*
X20177619Y-39880952D01*
X20225238Y-39857142D01*
X20320476Y-39833333D01*
X20391904Y-39833333D01*
X20487142Y-39857142D01*
X20534761Y-39880952D01*
X20582380Y-39928571D01*
X20606190Y-40000000D01*
X20606190Y-40119047D01*
X20106190Y-39523809D02*
X20106190Y-39476190D01*
X20130000Y-39428571D01*
X20153809Y-39404761D01*
X20201428Y-39380952D01*
X20296666Y-39357142D01*
X20415714Y-39357142D01*
X20510952Y-39380952D01*
X20558571Y-39404761D01*
X20582380Y-39428571D01*
X20606190Y-39476190D01*
X20606190Y-39523809D01*
X20582380Y-39571428D01*
X20558571Y-39595238D01*
X20510952Y-39619047D01*
X20415714Y-39642857D01*
X20296666Y-39642857D01*
X20201428Y-39619047D01*
X20153809Y-39595238D01*
X20130000Y-39571428D01*
X20106190Y-39523809D01*
X20606190Y-38079047D02*
X20106190Y-38079047D01*
X20106190Y-37888571D01*
X20130000Y-37840952D01*
X20153809Y-37817142D01*
X20201428Y-37793333D01*
X20272857Y-37793333D01*
X20320476Y-37817142D01*
X20344285Y-37840952D01*
X20368095Y-37888571D01*
X20368095Y-38079047D01*
X20606190Y-37579047D02*
X20106190Y-37579047D01*
X20106190Y-37460000D01*
X20130000Y-37388571D01*
X20177619Y-37340952D01*
X20225238Y-37317142D01*
X20320476Y-37293333D01*
X20391904Y-37293333D01*
X20487142Y-37317142D01*
X20534761Y-37340952D01*
X20582380Y-37388571D01*
X20606190Y-37460000D01*
X20606190Y-37579047D01*
X20606190Y-36817142D02*
X20606190Y-37102857D01*
X20606190Y-36960000D02*
X20106190Y-36960000D01*
X20177619Y-37007619D01*
X20225238Y-37055238D01*
X20249047Y-37102857D01*
X20130000Y-32760952D02*
X20106190Y-32808571D01*
X20106190Y-32880000D01*
X20130000Y-32951428D01*
X20177619Y-32999047D01*
X20225238Y-33022857D01*
X20320476Y-33046666D01*
X20391904Y-33046666D01*
X20487142Y-33022857D01*
X20534761Y-32999047D01*
X20582380Y-32951428D01*
X20606190Y-32880000D01*
X20606190Y-32832380D01*
X20582380Y-32760952D01*
X20558571Y-32737142D01*
X20391904Y-32737142D01*
X20391904Y-32832380D01*
X20606190Y-32522857D02*
X20106190Y-32522857D01*
X20606190Y-32237142D01*
X20106190Y-32237142D01*
X20606190Y-31999047D02*
X20106190Y-31999047D01*
X20106190Y-31880000D01*
X20130000Y-31808571D01*
X20177619Y-31760952D01*
X20225238Y-31737142D01*
X20320476Y-31713333D01*
X20391904Y-31713333D01*
X20487142Y-31737142D01*
X20534761Y-31760952D01*
X20582380Y-31808571D01*
X20606190Y-31880000D01*
X20606190Y-31999047D01*
X20130000Y-35300952D02*
X20106190Y-35348571D01*
X20106190Y-35420000D01*
X20130000Y-35491428D01*
X20177619Y-35539047D01*
X20225238Y-35562857D01*
X20320476Y-35586666D01*
X20391904Y-35586666D01*
X20487142Y-35562857D01*
X20534761Y-35539047D01*
X20582380Y-35491428D01*
X20606190Y-35420000D01*
X20606190Y-35372380D01*
X20582380Y-35300952D01*
X20558571Y-35277142D01*
X20391904Y-35277142D01*
X20391904Y-35372380D01*
X20606190Y-35062857D02*
X20106190Y-35062857D01*
X20606190Y-34777142D01*
X20106190Y-34777142D01*
X20606190Y-34539047D02*
X20106190Y-34539047D01*
X20106190Y-34420000D01*
X20130000Y-34348571D01*
X20177619Y-34300952D01*
X20225238Y-34277142D01*
X20320476Y-34253333D01*
X20391904Y-34253333D01*
X20487142Y-34277142D01*
X20534761Y-34300952D01*
X20582380Y-34348571D01*
X20606190Y-34420000D01*
X20606190Y-34539047D01*
X20606190Y-30459047D02*
X20106190Y-30459047D01*
X20106190Y-30268571D01*
X20130000Y-30220952D01*
X20153809Y-30197142D01*
X20201428Y-30173333D01*
X20272857Y-30173333D01*
X20320476Y-30197142D01*
X20344285Y-30220952D01*
X20368095Y-30268571D01*
X20368095Y-30459047D01*
X20606190Y-29959047D02*
X20106190Y-29959047D01*
X20106190Y-29840000D01*
X20130000Y-29768571D01*
X20177619Y-29720952D01*
X20225238Y-29697142D01*
X20320476Y-29673333D01*
X20391904Y-29673333D01*
X20487142Y-29697142D01*
X20534761Y-29720952D01*
X20582380Y-29768571D01*
X20606190Y-29840000D01*
X20606190Y-29959047D01*
X20153809Y-29482857D02*
X20130000Y-29459047D01*
X20106190Y-29411428D01*
X20106190Y-29292380D01*
X20130000Y-29244761D01*
X20153809Y-29220952D01*
X20201428Y-29197142D01*
X20249047Y-29197142D01*
X20320476Y-29220952D01*
X20606190Y-29506666D01*
X20606190Y-29197142D01*
X20606190Y-27919047D02*
X20106190Y-27919047D01*
X20106190Y-27728571D01*
X20130000Y-27680952D01*
X20153809Y-27657142D01*
X20201428Y-27633333D01*
X20272857Y-27633333D01*
X20320476Y-27657142D01*
X20344285Y-27680952D01*
X20368095Y-27728571D01*
X20368095Y-27919047D01*
X20606190Y-27419047D02*
X20106190Y-27419047D01*
X20106190Y-27300000D01*
X20130000Y-27228571D01*
X20177619Y-27180952D01*
X20225238Y-27157142D01*
X20320476Y-27133333D01*
X20391904Y-27133333D01*
X20487142Y-27157142D01*
X20534761Y-27180952D01*
X20582380Y-27228571D01*
X20606190Y-27300000D01*
X20606190Y-27419047D01*
X20106190Y-26966666D02*
X20106190Y-26657142D01*
X20296666Y-26823809D01*
X20296666Y-26752380D01*
X20320476Y-26704761D01*
X20344285Y-26680952D01*
X20391904Y-26657142D01*
X20510952Y-26657142D01*
X20558571Y-26680952D01*
X20582380Y-26704761D01*
X20606190Y-26752380D01*
X20606190Y-26895238D01*
X20582380Y-26942857D01*
X20558571Y-26966666D01*
X35796190Y-32233333D02*
X35558095Y-32400000D01*
X35796190Y-32519047D02*
X35296190Y-32519047D01*
X35296190Y-32328571D01*
X35320000Y-32280952D01*
X35343809Y-32257142D01*
X35391428Y-32233333D01*
X35462857Y-32233333D01*
X35510476Y-32257142D01*
X35534285Y-32280952D01*
X35558095Y-32328571D01*
X35558095Y-32519047D01*
X35296190Y-32066666D02*
X35296190Y-31757142D01*
X35486666Y-31923809D01*
X35486666Y-31852380D01*
X35510476Y-31804761D01*
X35534285Y-31780952D01*
X35581904Y-31757142D01*
X35700952Y-31757142D01*
X35748571Y-31780952D01*
X35772380Y-31804761D01*
X35796190Y-31852380D01*
X35796190Y-31995238D01*
X35772380Y-32042857D01*
X35748571Y-32066666D01*
D12*
X33558477Y-40204026D02*
X32986057Y-40776446D01*
X32952385Y-40877461D01*
X32952385Y-40944805D01*
X32986057Y-41045820D01*
X33120744Y-41180507D01*
X33221759Y-41214179D01*
X33289103Y-41214179D01*
X33390118Y-41180507D01*
X33962538Y-40608087D01*
X33962538Y-42022301D02*
X33558477Y-41618240D01*
X33760507Y-41820270D02*
X34467614Y-41113164D01*
X34299255Y-41146835D01*
X34164568Y-41146835D01*
X34063553Y-41113164D01*
D11*
X35251190Y-25523333D02*
X35013095Y-25690000D01*
X35251190Y-25809047D02*
X34751190Y-25809047D01*
X34751190Y-25618571D01*
X34775000Y-25570952D01*
X34798809Y-25547142D01*
X34846428Y-25523333D01*
X34917857Y-25523333D01*
X34965476Y-25547142D01*
X34989285Y-25570952D01*
X35013095Y-25618571D01*
X35013095Y-25809047D01*
X34751190Y-25094761D02*
X34751190Y-25190000D01*
X34775000Y-25237619D01*
X34798809Y-25261428D01*
X34870238Y-25309047D01*
X34965476Y-25332857D01*
X35155952Y-25332857D01*
X35203571Y-25309047D01*
X35227380Y-25285238D01*
X35251190Y-25237619D01*
X35251190Y-25142380D01*
X35227380Y-25094761D01*
X35203571Y-25070952D01*
X35155952Y-25047142D01*
X35036904Y-25047142D01*
X34989285Y-25070952D01*
X34965476Y-25094761D01*
X34941666Y-25142380D01*
X34941666Y-25237619D01*
X34965476Y-25285238D01*
X34989285Y-25309047D01*
X35036904Y-25332857D01*
X30076190Y-37103333D02*
X29838095Y-37270000D01*
X30076190Y-37389047D02*
X29576190Y-37389047D01*
X29576190Y-37198571D01*
X29600000Y-37150952D01*
X29623809Y-37127142D01*
X29671428Y-37103333D01*
X29742857Y-37103333D01*
X29790476Y-37127142D01*
X29814285Y-37150952D01*
X29838095Y-37198571D01*
X29838095Y-37389047D01*
X29576190Y-36650952D02*
X29576190Y-36889047D01*
X29814285Y-36912857D01*
X29790476Y-36889047D01*
X29766666Y-36841428D01*
X29766666Y-36722380D01*
X29790476Y-36674761D01*
X29814285Y-36650952D01*
X29861904Y-36627142D01*
X29980952Y-36627142D01*
X30028571Y-36650952D01*
X30052380Y-36674761D01*
X30076190Y-36722380D01*
X30076190Y-36841428D01*
X30052380Y-36889047D01*
X30028571Y-36912857D01*
X29036190Y-36723333D02*
X28798095Y-36890000D01*
X29036190Y-37009047D02*
X28536190Y-37009047D01*
X28536190Y-36818571D01*
X28560000Y-36770952D01*
X28583809Y-36747142D01*
X28631428Y-36723333D01*
X28702857Y-36723333D01*
X28750476Y-36747142D01*
X28774285Y-36770952D01*
X28798095Y-36818571D01*
X28798095Y-37009047D01*
X28702857Y-36294761D02*
X29036190Y-36294761D01*
X28512380Y-36413809D02*
X28869523Y-36532857D01*
X28869523Y-36223333D01*
X24581190Y-25303333D02*
X24343095Y-25470000D01*
X24581190Y-25589047D02*
X24081190Y-25589047D01*
X24081190Y-25398571D01*
X24105000Y-25350952D01*
X24128809Y-25327142D01*
X24176428Y-25303333D01*
X24247857Y-25303333D01*
X24295476Y-25327142D01*
X24319285Y-25350952D01*
X24343095Y-25398571D01*
X24343095Y-25589047D01*
X24128809Y-25112857D02*
X24105000Y-25089047D01*
X24081190Y-25041428D01*
X24081190Y-24922380D01*
X24105000Y-24874761D01*
X24128809Y-24850952D01*
X24176428Y-24827142D01*
X24224047Y-24827142D01*
X24295476Y-24850952D01*
X24581190Y-25136666D01*
X24581190Y-24827142D01*
X35201190Y-24463333D02*
X34963095Y-24630000D01*
X35201190Y-24749047D02*
X34701190Y-24749047D01*
X34701190Y-24558571D01*
X34725000Y-24510952D01*
X34748809Y-24487142D01*
X34796428Y-24463333D01*
X34867857Y-24463333D01*
X34915476Y-24487142D01*
X34939285Y-24510952D01*
X34963095Y-24558571D01*
X34963095Y-24749047D01*
X35201190Y-23987142D02*
X35201190Y-24272857D01*
X35201190Y-24130000D02*
X34701190Y-24130000D01*
X34772619Y-24177619D01*
X34820238Y-24225238D01*
X34844047Y-24272857D01*
X34619321Y-39503216D02*
X34619321Y-39536888D01*
X34585649Y-39604231D01*
X34551978Y-39637903D01*
X34484634Y-39671575D01*
X34417291Y-39671575D01*
X34366783Y-39654739D01*
X34282604Y-39604231D01*
X34232096Y-39553724D01*
X34181588Y-39469544D01*
X34164753Y-39419037D01*
X34164753Y-39351693D01*
X34198424Y-39284350D01*
X34232096Y-39250678D01*
X34299440Y-39217006D01*
X34333111Y-39217006D01*
X34989711Y-39200170D02*
X34787680Y-39402201D01*
X34888695Y-39301185D02*
X34535142Y-38947632D01*
X34551978Y-39031811D01*
X34551978Y-39099155D01*
X34535142Y-39149663D01*
X34855024Y-38627750D02*
X34888695Y-38594079D01*
X34939203Y-38577243D01*
X34972875Y-38577243D01*
X35023382Y-38594079D01*
X35107562Y-38644586D01*
X35191741Y-38728766D01*
X35242249Y-38812945D01*
X35259085Y-38863453D01*
X35259085Y-38897124D01*
X35242249Y-38947632D01*
X35208577Y-38981304D01*
X35158069Y-38998140D01*
X35124398Y-38998140D01*
X35073890Y-38981304D01*
X34989711Y-38930796D01*
X34905531Y-38846617D01*
X34855024Y-38762437D01*
X34838188Y-38711930D01*
X34838188Y-38678258D01*
X34855024Y-38627750D01*
X25749292Y-39988399D02*
X25715620Y-39988399D01*
X25648277Y-39954727D01*
X25614605Y-39921056D01*
X25580933Y-39853712D01*
X25580933Y-39786368D01*
X25597769Y-39735861D01*
X25648277Y-39651681D01*
X25698784Y-39601174D01*
X25782964Y-39550666D01*
X25833471Y-39533830D01*
X25900815Y-39533830D01*
X25968158Y-39567502D01*
X26001830Y-39601174D01*
X26035502Y-39668517D01*
X26035502Y-39702189D01*
X25883979Y-40190430D02*
X25951322Y-40257773D01*
X26001830Y-40274609D01*
X26035502Y-40274609D01*
X26119681Y-40257773D01*
X26203861Y-40207265D01*
X26338548Y-40072578D01*
X26355383Y-40022071D01*
X26355383Y-39988399D01*
X26338548Y-39937891D01*
X26271204Y-39870548D01*
X26220696Y-39853712D01*
X26187025Y-39853712D01*
X26136517Y-39870548D01*
X26052338Y-39954727D01*
X26035502Y-40005235D01*
X26035502Y-40038907D01*
X26052338Y-40089414D01*
X26119681Y-40156758D01*
X26170189Y-40173594D01*
X26203861Y-40173594D01*
X26254368Y-40156758D01*
X23893571Y-49213333D02*
X23917380Y-49237142D01*
X23941190Y-49308571D01*
X23941190Y-49356190D01*
X23917380Y-49427619D01*
X23869761Y-49475238D01*
X23822142Y-49499047D01*
X23726904Y-49522857D01*
X23655476Y-49522857D01*
X23560238Y-49499047D01*
X23512619Y-49475238D01*
X23465000Y-49427619D01*
X23441190Y-49356190D01*
X23441190Y-49308571D01*
X23465000Y-49237142D01*
X23488809Y-49213333D01*
X23655476Y-48927619D02*
X23631666Y-48975238D01*
X23607857Y-48999047D01*
X23560238Y-49022857D01*
X23536428Y-49022857D01*
X23488809Y-48999047D01*
X23465000Y-48975238D01*
X23441190Y-48927619D01*
X23441190Y-48832380D01*
X23465000Y-48784761D01*
X23488809Y-48760952D01*
X23536428Y-48737142D01*
X23560238Y-48737142D01*
X23607857Y-48760952D01*
X23631666Y-48784761D01*
X23655476Y-48832380D01*
X23655476Y-48927619D01*
X23679285Y-48975238D01*
X23703095Y-48999047D01*
X23750714Y-49022857D01*
X23845952Y-49022857D01*
X23893571Y-48999047D01*
X23917380Y-48975238D01*
X23941190Y-48927619D01*
X23941190Y-48832380D01*
X23917380Y-48784761D01*
X23893571Y-48760952D01*
X23845952Y-48737142D01*
X23750714Y-48737142D01*
X23703095Y-48760952D01*
X23679285Y-48784761D01*
X23655476Y-48832380D01*
X27868571Y-50958333D02*
X27892380Y-50982142D01*
X27916190Y-51053571D01*
X27916190Y-51101190D01*
X27892380Y-51172619D01*
X27844761Y-51220238D01*
X27797142Y-51244047D01*
X27701904Y-51267857D01*
X27630476Y-51267857D01*
X27535238Y-51244047D01*
X27487619Y-51220238D01*
X27440000Y-51172619D01*
X27416190Y-51101190D01*
X27416190Y-51053571D01*
X27440000Y-50982142D01*
X27463809Y-50958333D01*
X27416190Y-50791666D02*
X27416190Y-50458333D01*
X27916190Y-50672619D01*
X25044852Y-40857391D02*
X25011180Y-40857391D01*
X24943837Y-40823719D01*
X24910165Y-40790048D01*
X24876493Y-40722704D01*
X24876493Y-40655360D01*
X24893329Y-40604853D01*
X24943837Y-40520673D01*
X24994344Y-40470166D01*
X25078524Y-40419658D01*
X25129031Y-40402822D01*
X25196375Y-40402822D01*
X25263718Y-40436494D01*
X25297390Y-40470166D01*
X25331062Y-40537509D01*
X25331062Y-40571181D01*
X25667779Y-40840555D02*
X25600436Y-40773212D01*
X25549928Y-40756376D01*
X25516256Y-40756376D01*
X25432077Y-40773212D01*
X25347898Y-40823719D01*
X25213211Y-40958406D01*
X25196375Y-41008914D01*
X25196375Y-41042586D01*
X25213211Y-41093093D01*
X25280554Y-41160437D01*
X25331062Y-41177273D01*
X25364734Y-41177273D01*
X25415241Y-41160437D01*
X25499421Y-41076257D01*
X25516256Y-41025750D01*
X25516256Y-40992078D01*
X25499421Y-40941570D01*
X25432077Y-40874227D01*
X25381569Y-40857391D01*
X25347898Y-40857391D01*
X25297390Y-40874227D01*
X32098571Y-37953333D02*
X32122380Y-37977142D01*
X32146190Y-38048571D01*
X32146190Y-38096190D01*
X32122380Y-38167619D01*
X32074761Y-38215238D01*
X32027142Y-38239047D01*
X31931904Y-38262857D01*
X31860476Y-38262857D01*
X31765238Y-38239047D01*
X31717619Y-38215238D01*
X31670000Y-38167619D01*
X31646190Y-38096190D01*
X31646190Y-38048571D01*
X31670000Y-37977142D01*
X31693809Y-37953333D01*
X31646190Y-37500952D02*
X31646190Y-37739047D01*
X31884285Y-37762857D01*
X31860476Y-37739047D01*
X31836666Y-37691428D01*
X31836666Y-37572380D01*
X31860476Y-37524761D01*
X31884285Y-37500952D01*
X31931904Y-37477142D01*
X32050952Y-37477142D01*
X32098571Y-37500952D01*
X32122380Y-37524761D01*
X32146190Y-37572380D01*
X32146190Y-37691428D01*
X32122380Y-37739047D01*
X32098571Y-37762857D01*
X33730903Y-38625776D02*
X33730903Y-38659448D01*
X33697231Y-38726791D01*
X33663560Y-38760463D01*
X33596216Y-38794135D01*
X33528872Y-38794135D01*
X33478365Y-38777299D01*
X33394185Y-38726791D01*
X33343678Y-38676284D01*
X33293170Y-38592104D01*
X33276334Y-38541597D01*
X33276334Y-38474253D01*
X33310006Y-38406910D01*
X33343678Y-38373238D01*
X33411021Y-38339566D01*
X33444693Y-38339566D01*
X33831918Y-38120700D02*
X34067621Y-38356402D01*
X33613052Y-38070192D02*
X33781411Y-38406910D01*
X34000277Y-38188043D01*
X36122185Y-41389622D02*
X36145994Y-41413431D01*
X36169804Y-41484860D01*
X36169804Y-41532479D01*
X36145994Y-41603908D01*
X36098375Y-41651527D01*
X36050756Y-41675336D01*
X35955518Y-41699146D01*
X35884090Y-41699146D01*
X35788852Y-41675336D01*
X35741233Y-41651527D01*
X35693614Y-41603908D01*
X35669804Y-41532479D01*
X35669804Y-41484860D01*
X35693614Y-41413431D01*
X35717423Y-41389622D01*
X35669804Y-41222955D02*
X35669804Y-40913431D01*
X35860280Y-41080098D01*
X35860280Y-41008669D01*
X35884090Y-40961050D01*
X35907899Y-40937241D01*
X35955518Y-40913431D01*
X36074566Y-40913431D01*
X36122185Y-40937241D01*
X36145994Y-40961050D01*
X36169804Y-41008669D01*
X36169804Y-41151527D01*
X36145994Y-41199146D01*
X36122185Y-41222955D01*
X33761323Y-51213861D02*
X33727651Y-51213861D01*
X33660308Y-51180189D01*
X33626636Y-51146518D01*
X33592964Y-51079174D01*
X33592964Y-51011830D01*
X33609800Y-50961323D01*
X33660308Y-50877143D01*
X33710815Y-50826636D01*
X33794995Y-50776128D01*
X33845502Y-50759292D01*
X33912846Y-50759292D01*
X33980189Y-50792964D01*
X34013861Y-50826636D01*
X34047533Y-50893979D01*
X34047533Y-50927651D01*
X34182220Y-51062338D02*
X34215892Y-51062338D01*
X34266399Y-51079174D01*
X34350579Y-51163353D01*
X34367414Y-51213861D01*
X34367414Y-51247533D01*
X34350579Y-51298040D01*
X34316907Y-51331712D01*
X34249563Y-51365384D01*
X33845502Y-51365384D01*
X34064369Y-51584250D01*
X24486666Y-48788571D02*
X24462857Y-48812380D01*
X24391428Y-48836190D01*
X24343809Y-48836190D01*
X24272380Y-48812380D01*
X24224761Y-48764761D01*
X24200952Y-48717142D01*
X24177142Y-48621904D01*
X24177142Y-48550476D01*
X24200952Y-48455238D01*
X24224761Y-48407619D01*
X24272380Y-48360000D01*
X24343809Y-48336190D01*
X24391428Y-48336190D01*
X24462857Y-48360000D01*
X24486666Y-48383809D01*
X24962857Y-48836190D02*
X24677142Y-48836190D01*
X24820000Y-48836190D02*
X24820000Y-48336190D01*
X24772380Y-48407619D01*
X24724761Y-48455238D01*
X24677142Y-48479047D01*
M02*
