G04 #@! TF.GenerationSoftware,KiCad,Pcbnew,5.1.5+dfsg1-2build2*
G04 #@! TF.CreationDate,2020-11-29T01:09:51-05:00*
G04 #@! TF.ProjectId,goldfish,676f6c64-6669-4736-982e-6b696361645f,rev?*
G04 #@! TF.SameCoordinates,Original*
G04 #@! TF.FileFunction,Copper,L3,Inr*
G04 #@! TF.FilePolarity,Positive*
%FSLAX46Y46*%
G04 Gerber Fmt 4.6, Leading zero omitted, Abs format (unit mm)*
G04 Created by KiCad (PCBNEW 5.1.5+dfsg1-2build2) date 2020-11-29 01:09:51*
%MOMM*%
%LPD*%
G04 APERTURE LIST*
%ADD10C,1.700000*%
%ADD11O,1.000000X2.100000*%
%ADD12O,1.000000X1.600000*%
%ADD13C,0.800000*%
%ADD14C,0.254000*%
G04 APERTURE END LIST*
D10*
X37620000Y-55240000D03*
X37620000Y-52700000D03*
X37620000Y-50160000D03*
X37620000Y-47620000D03*
X37620000Y-45080000D03*
X37620000Y-42540000D03*
X37620000Y-40000000D03*
X37620000Y-37460000D03*
X37620000Y-34920000D03*
X37620000Y-32380000D03*
X37620000Y-29840000D03*
X37620000Y-27300000D03*
D11*
X33920000Y-29540000D03*
X25280000Y-29540000D03*
D12*
X33920000Y-25360000D03*
X25280000Y-25360000D03*
D10*
X22380000Y-27300000D03*
X22380000Y-29840000D03*
X22380000Y-32380000D03*
X22380000Y-34920000D03*
X22380000Y-37460000D03*
X22380000Y-40000000D03*
X22380000Y-42540000D03*
X22380000Y-45080000D03*
X22380000Y-47620000D03*
X22380000Y-50160000D03*
X22380000Y-52700000D03*
X22380000Y-55240000D03*
X24920000Y-55250000D03*
X27460000Y-55250000D03*
X30000000Y-55250000D03*
X32540000Y-55250000D03*
X35080000Y-55250000D03*
D13*
X31550000Y-43140000D03*
X29780000Y-43120000D03*
X32580000Y-44110000D03*
X33490000Y-45010000D03*
X30540000Y-42460000D03*
X30880000Y-46020000D03*
X29840000Y-45150000D03*
X28850000Y-44120000D03*
X28030000Y-45040000D03*
X28850000Y-45910000D03*
X29750000Y-46880000D03*
X30670000Y-47750000D03*
X30730000Y-44130000D03*
X31620000Y-44980000D03*
X32530000Y-45940000D03*
X31580000Y-46840000D03*
X31050000Y-36591600D03*
X28500000Y-53230000D03*
X34410000Y-39130000D03*
X33620000Y-38360000D03*
X26070000Y-48030000D03*
X30920000Y-51070000D03*
X27510000Y-40100000D03*
X25500000Y-47570000D03*
X35856400Y-44078900D03*
X31660200Y-39230200D03*
X35230000Y-36680000D03*
X24060000Y-36220000D03*
X32504900Y-51033457D03*
X25647919Y-46654865D03*
X27150000Y-32828100D03*
X32709800Y-33523300D03*
X34822800Y-51586000D03*
X36262954Y-47274677D03*
X25310000Y-43510002D03*
X26001034Y-45165366D03*
X26094400Y-42916800D03*
X35566400Y-40267900D03*
X24500200Y-40981400D03*
X27681100Y-50020500D03*
X28974800Y-49948700D03*
X28386700Y-48918700D03*
X27688500Y-48279500D03*
X33036000Y-48901400D03*
X35110000Y-48390000D03*
X31929700Y-51828900D03*
X23318300Y-41511500D03*
X30577300Y-40402800D03*
X33075900Y-52463000D03*
D14*
G36*
X24406839Y-24323831D02*
G01*
X24279997Y-24508322D01*
X24191585Y-24714013D01*
X24145000Y-24933000D01*
X24145000Y-25233000D01*
X25153000Y-25233000D01*
X25153000Y-25213000D01*
X25407000Y-25213000D01*
X25407000Y-25233000D01*
X26415000Y-25233000D01*
X26415000Y-24933000D01*
X26368415Y-24714013D01*
X26280003Y-24508322D01*
X26153161Y-24323831D01*
X26000331Y-24175000D01*
X33199669Y-24175000D01*
X33046839Y-24323831D01*
X32919997Y-24508322D01*
X32831585Y-24714013D01*
X32785000Y-24933000D01*
X32785000Y-25233000D01*
X33793000Y-25233000D01*
X33793000Y-25213000D01*
X34047000Y-25213000D01*
X34047000Y-25233000D01*
X35055000Y-25233000D01*
X35055000Y-24933000D01*
X35008415Y-24714013D01*
X34920003Y-24508322D01*
X34793161Y-24323831D01*
X34640331Y-24175000D01*
X39985000Y-24175000D01*
X39985001Y-56665000D01*
X38060237Y-56665000D01*
X38323411Y-56555990D01*
X38566632Y-56393475D01*
X38773475Y-56186632D01*
X38935990Y-55943411D01*
X39047932Y-55673158D01*
X39105000Y-55386260D01*
X39105000Y-55093740D01*
X39047932Y-54806842D01*
X38935990Y-54536589D01*
X38773475Y-54293368D01*
X38566632Y-54086525D01*
X38392240Y-53970000D01*
X38566632Y-53853475D01*
X38773475Y-53646632D01*
X38935990Y-53403411D01*
X39047932Y-53133158D01*
X39105000Y-52846260D01*
X39105000Y-52553740D01*
X39047932Y-52266842D01*
X38935990Y-51996589D01*
X38773475Y-51753368D01*
X38566632Y-51546525D01*
X38392240Y-51430000D01*
X38566632Y-51313475D01*
X38773475Y-51106632D01*
X38935990Y-50863411D01*
X39047932Y-50593158D01*
X39105000Y-50306260D01*
X39105000Y-50013740D01*
X39047932Y-49726842D01*
X38935990Y-49456589D01*
X38773475Y-49213368D01*
X38566632Y-49006525D01*
X38392240Y-48890000D01*
X38566632Y-48773475D01*
X38773475Y-48566632D01*
X38935990Y-48323411D01*
X39047932Y-48053158D01*
X39105000Y-47766260D01*
X39105000Y-47473740D01*
X39047932Y-47186842D01*
X38935990Y-46916589D01*
X38773475Y-46673368D01*
X38566632Y-46466525D01*
X38392240Y-46350000D01*
X38566632Y-46233475D01*
X38773475Y-46026632D01*
X38935990Y-45783411D01*
X39047932Y-45513158D01*
X39105000Y-45226260D01*
X39105000Y-44933740D01*
X39047932Y-44646842D01*
X38935990Y-44376589D01*
X38773475Y-44133368D01*
X38566632Y-43926525D01*
X38392240Y-43810000D01*
X38566632Y-43693475D01*
X38773475Y-43486632D01*
X38935990Y-43243411D01*
X39047932Y-42973158D01*
X39105000Y-42686260D01*
X39105000Y-42393740D01*
X39047932Y-42106842D01*
X38935990Y-41836589D01*
X38773475Y-41593368D01*
X38566632Y-41386525D01*
X38392240Y-41270000D01*
X38566632Y-41153475D01*
X38773475Y-40946632D01*
X38935990Y-40703411D01*
X39047932Y-40433158D01*
X39105000Y-40146260D01*
X39105000Y-39853740D01*
X39047932Y-39566842D01*
X38935990Y-39296589D01*
X38773475Y-39053368D01*
X38566632Y-38846525D01*
X38392240Y-38730000D01*
X38566632Y-38613475D01*
X38773475Y-38406632D01*
X38935990Y-38163411D01*
X39047932Y-37893158D01*
X39105000Y-37606260D01*
X39105000Y-37313740D01*
X39047932Y-37026842D01*
X38935990Y-36756589D01*
X38773475Y-36513368D01*
X38566632Y-36306525D01*
X38392240Y-36190000D01*
X38566632Y-36073475D01*
X38773475Y-35866632D01*
X38935990Y-35623411D01*
X39047932Y-35353158D01*
X39105000Y-35066260D01*
X39105000Y-34773740D01*
X39047932Y-34486842D01*
X38935990Y-34216589D01*
X38773475Y-33973368D01*
X38566632Y-33766525D01*
X38392240Y-33650000D01*
X38566632Y-33533475D01*
X38773475Y-33326632D01*
X38935990Y-33083411D01*
X39047932Y-32813158D01*
X39105000Y-32526260D01*
X39105000Y-32233740D01*
X39047932Y-31946842D01*
X38935990Y-31676589D01*
X38773475Y-31433368D01*
X38566632Y-31226525D01*
X38393271Y-31110689D01*
X38468792Y-30868397D01*
X37620000Y-30019605D01*
X36771208Y-30868397D01*
X36846729Y-31110689D01*
X36673368Y-31226525D01*
X36466525Y-31433368D01*
X36304010Y-31676589D01*
X36192068Y-31946842D01*
X36135000Y-32233740D01*
X36135000Y-32526260D01*
X36192068Y-32813158D01*
X36304010Y-33083411D01*
X36466525Y-33326632D01*
X36673368Y-33533475D01*
X36847760Y-33650000D01*
X36673368Y-33766525D01*
X36466525Y-33973368D01*
X36304010Y-34216589D01*
X36192068Y-34486842D01*
X36135000Y-34773740D01*
X36135000Y-35066260D01*
X36192068Y-35353158D01*
X36304010Y-35623411D01*
X36466525Y-35866632D01*
X36673368Y-36073475D01*
X36847760Y-36190000D01*
X36673368Y-36306525D01*
X36466525Y-36513368D01*
X36304010Y-36756589D01*
X36238661Y-36914357D01*
X36265000Y-36781939D01*
X36265000Y-36578061D01*
X36225226Y-36378102D01*
X36147205Y-36189744D01*
X36033937Y-36020226D01*
X35889774Y-35876063D01*
X35720256Y-35762795D01*
X35531898Y-35684774D01*
X35331939Y-35645000D01*
X35128061Y-35645000D01*
X34928102Y-35684774D01*
X34739744Y-35762795D01*
X34570226Y-35876063D01*
X34426063Y-36020226D01*
X34312795Y-36189744D01*
X34234774Y-36378102D01*
X34195000Y-36578061D01*
X34195000Y-36781939D01*
X34234774Y-36981898D01*
X34312795Y-37170256D01*
X34426063Y-37339774D01*
X34570226Y-37483937D01*
X34739744Y-37597205D01*
X34928102Y-37675226D01*
X35128061Y-37715000D01*
X35331939Y-37715000D01*
X35531898Y-37675226D01*
X35720256Y-37597205D01*
X35889774Y-37483937D01*
X36033937Y-37339774D01*
X36147205Y-37170256D01*
X36178633Y-37094382D01*
X36135000Y-37313740D01*
X36135000Y-37606260D01*
X36192068Y-37893158D01*
X36304010Y-38163411D01*
X36466525Y-38406632D01*
X36673368Y-38613475D01*
X36847760Y-38730000D01*
X36673368Y-38846525D01*
X36466525Y-39053368D01*
X36304010Y-39296589D01*
X36232190Y-39469979D01*
X36226174Y-39463963D01*
X36056656Y-39350695D01*
X35868298Y-39272674D01*
X35668339Y-39232900D01*
X35464461Y-39232900D01*
X35264502Y-39272674D01*
X35076144Y-39350695D01*
X34906626Y-39463963D01*
X34762463Y-39608126D01*
X34649195Y-39777644D01*
X34571174Y-39966002D01*
X34531400Y-40165961D01*
X34531400Y-40369839D01*
X34571174Y-40569798D01*
X34649195Y-40758156D01*
X34762463Y-40927674D01*
X34906626Y-41071837D01*
X35076144Y-41185105D01*
X35264502Y-41263126D01*
X35464461Y-41302900D01*
X35668339Y-41302900D01*
X35868298Y-41263126D01*
X36056656Y-41185105D01*
X36226174Y-41071837D01*
X36370337Y-40927674D01*
X36412097Y-40865175D01*
X36466525Y-40946632D01*
X36673368Y-41153475D01*
X36847760Y-41270000D01*
X36673368Y-41386525D01*
X36466525Y-41593368D01*
X36304010Y-41836589D01*
X36192068Y-42106842D01*
X36135000Y-42393740D01*
X36135000Y-42686260D01*
X36192068Y-42973158D01*
X36254320Y-43123448D01*
X36158298Y-43083674D01*
X35958339Y-43043900D01*
X35754461Y-43043900D01*
X35554502Y-43083674D01*
X35366144Y-43161695D01*
X35196626Y-43274963D01*
X35052463Y-43419126D01*
X34939195Y-43588644D01*
X34861174Y-43777002D01*
X34821400Y-43976961D01*
X34821400Y-44180839D01*
X34861174Y-44380798D01*
X34939195Y-44569156D01*
X35052463Y-44738674D01*
X35196626Y-44882837D01*
X35366144Y-44996105D01*
X35554502Y-45074126D01*
X35754461Y-45113900D01*
X35958339Y-45113900D01*
X36135000Y-45078760D01*
X36135000Y-45226260D01*
X36192068Y-45513158D01*
X36304010Y-45783411D01*
X36466525Y-46026632D01*
X36673368Y-46233475D01*
X36847760Y-46350000D01*
X36794894Y-46385324D01*
X36753210Y-46357472D01*
X36564852Y-46279451D01*
X36364893Y-46239677D01*
X36161015Y-46239677D01*
X35961056Y-46279451D01*
X35772698Y-46357472D01*
X35603180Y-46470740D01*
X35459017Y-46614903D01*
X35345749Y-46784421D01*
X35267728Y-46972779D01*
X35227954Y-47172738D01*
X35227954Y-47358186D01*
X35211939Y-47355000D01*
X35008061Y-47355000D01*
X34808102Y-47394774D01*
X34619744Y-47472795D01*
X34450226Y-47586063D01*
X34306063Y-47730226D01*
X34192795Y-47899744D01*
X34114774Y-48088102D01*
X34075000Y-48288061D01*
X34075000Y-48491939D01*
X34114774Y-48691898D01*
X34192795Y-48880256D01*
X34306063Y-49049774D01*
X34450226Y-49193937D01*
X34619744Y-49307205D01*
X34808102Y-49385226D01*
X35008061Y-49425000D01*
X35211939Y-49425000D01*
X35411898Y-49385226D01*
X35600256Y-49307205D01*
X35769774Y-49193937D01*
X35913937Y-49049774D01*
X36027205Y-48880256D01*
X36105226Y-48691898D01*
X36145000Y-48491939D01*
X36145000Y-48306491D01*
X36161015Y-48309677D01*
X36298321Y-48309677D01*
X36304010Y-48323411D01*
X36466525Y-48566632D01*
X36673368Y-48773475D01*
X36847760Y-48890000D01*
X36673368Y-49006525D01*
X36466525Y-49213368D01*
X36304010Y-49456589D01*
X36192068Y-49726842D01*
X36135000Y-50013740D01*
X36135000Y-50306260D01*
X36192068Y-50593158D01*
X36304010Y-50863411D01*
X36466525Y-51106632D01*
X36673368Y-51313475D01*
X36847760Y-51430000D01*
X36673368Y-51546525D01*
X36466525Y-51753368D01*
X36304010Y-51996589D01*
X36192068Y-52266842D01*
X36135000Y-52553740D01*
X36135000Y-52846260D01*
X36192068Y-53133158D01*
X36304010Y-53403411D01*
X36466525Y-53646632D01*
X36673368Y-53853475D01*
X36847760Y-53970000D01*
X36673368Y-54086525D01*
X36466525Y-54293368D01*
X36346659Y-54472760D01*
X36233475Y-54303368D01*
X36026632Y-54096525D01*
X35783411Y-53934010D01*
X35513158Y-53822068D01*
X35226260Y-53765000D01*
X34933740Y-53765000D01*
X34646842Y-53822068D01*
X34376589Y-53934010D01*
X34133368Y-54096525D01*
X33926525Y-54303368D01*
X33810000Y-54477760D01*
X33693475Y-54303368D01*
X33486632Y-54096525D01*
X33243411Y-53934010D01*
X32973158Y-53822068D01*
X32686260Y-53765000D01*
X32393740Y-53765000D01*
X32106842Y-53822068D01*
X31836589Y-53934010D01*
X31593368Y-54096525D01*
X31386525Y-54303368D01*
X31270000Y-54477760D01*
X31153475Y-54303368D01*
X30946632Y-54096525D01*
X30703411Y-53934010D01*
X30433158Y-53822068D01*
X30146260Y-53765000D01*
X29853740Y-53765000D01*
X29566842Y-53822068D01*
X29296589Y-53934010D01*
X29053368Y-54096525D01*
X28846525Y-54303368D01*
X28730000Y-54477760D01*
X28613475Y-54303368D01*
X28406632Y-54096525D01*
X28163411Y-53934010D01*
X27893158Y-53822068D01*
X27606260Y-53765000D01*
X27313740Y-53765000D01*
X27069304Y-53813622D01*
X27077333Y-53798601D01*
X27084560Y-53774776D01*
X27087000Y-53750000D01*
X27087000Y-51726961D01*
X30894700Y-51726961D01*
X30894700Y-51930839D01*
X30934474Y-52130798D01*
X31012495Y-52319156D01*
X31125763Y-52488674D01*
X31269926Y-52632837D01*
X31439444Y-52746105D01*
X31627802Y-52824126D01*
X31827761Y-52863900D01*
X32031639Y-52863900D01*
X32114828Y-52847353D01*
X32158695Y-52953256D01*
X32271963Y-53122774D01*
X32416126Y-53266937D01*
X32585644Y-53380205D01*
X32774002Y-53458226D01*
X32973961Y-53498000D01*
X33177839Y-53498000D01*
X33377798Y-53458226D01*
X33566156Y-53380205D01*
X33735674Y-53266937D01*
X33879837Y-53122774D01*
X33993105Y-52953256D01*
X34071126Y-52764898D01*
X34110900Y-52564939D01*
X34110900Y-52361061D01*
X34105127Y-52332038D01*
X34163026Y-52389937D01*
X34332544Y-52503205D01*
X34520902Y-52581226D01*
X34720861Y-52621000D01*
X34924739Y-52621000D01*
X35124698Y-52581226D01*
X35313056Y-52503205D01*
X35482574Y-52389937D01*
X35626737Y-52245774D01*
X35740005Y-52076256D01*
X35818026Y-51887898D01*
X35857800Y-51687939D01*
X35857800Y-51484061D01*
X35818026Y-51284102D01*
X35740005Y-51095744D01*
X35626737Y-50926226D01*
X35482574Y-50782063D01*
X35313056Y-50668795D01*
X35124698Y-50590774D01*
X34924739Y-50551000D01*
X34720861Y-50551000D01*
X34520902Y-50590774D01*
X34332544Y-50668795D01*
X34163026Y-50782063D01*
X34018863Y-50926226D01*
X33905595Y-51095744D01*
X33827574Y-51284102D01*
X33787800Y-51484061D01*
X33787800Y-51687939D01*
X33793573Y-51716962D01*
X33735674Y-51659063D01*
X33566156Y-51545795D01*
X33435394Y-51491631D01*
X33500126Y-51335355D01*
X33539900Y-51135396D01*
X33539900Y-50931518D01*
X33500126Y-50731559D01*
X33422105Y-50543201D01*
X33308837Y-50373683D01*
X33164674Y-50229520D01*
X32995156Y-50116252D01*
X32806798Y-50038231D01*
X32606839Y-49998457D01*
X32402961Y-49998457D01*
X32203002Y-50038231D01*
X32014644Y-50116252D01*
X31845126Y-50229520D01*
X31700963Y-50373683D01*
X31587695Y-50543201D01*
X31509674Y-50731559D01*
X31476932Y-50896167D01*
X31439444Y-50911695D01*
X31269926Y-51024963D01*
X31125763Y-51169126D01*
X31012495Y-51338644D01*
X30934474Y-51527002D01*
X30894700Y-51726961D01*
X27087000Y-51726961D01*
X27087000Y-50868319D01*
X27190844Y-50937705D01*
X27379202Y-51015726D01*
X27579161Y-51055500D01*
X27783039Y-51055500D01*
X27982998Y-51015726D01*
X28171356Y-50937705D01*
X28340874Y-50824437D01*
X28373562Y-50791749D01*
X28484544Y-50865905D01*
X28672902Y-50943926D01*
X28872861Y-50983700D01*
X29076739Y-50983700D01*
X29276698Y-50943926D01*
X29465056Y-50865905D01*
X29634574Y-50752637D01*
X29778737Y-50608474D01*
X29892005Y-50438956D01*
X29970026Y-50250598D01*
X30009800Y-50050639D01*
X30009800Y-49846761D01*
X29970026Y-49646802D01*
X29892005Y-49458444D01*
X29778737Y-49288926D01*
X29634574Y-49144763D01*
X29465056Y-49031495D01*
X29421700Y-49013536D01*
X29421700Y-48816761D01*
X29418259Y-48799461D01*
X32001000Y-48799461D01*
X32001000Y-49003339D01*
X32040774Y-49203298D01*
X32118795Y-49391656D01*
X32232063Y-49561174D01*
X32376226Y-49705337D01*
X32545744Y-49818605D01*
X32734102Y-49896626D01*
X32934061Y-49936400D01*
X33137939Y-49936400D01*
X33337898Y-49896626D01*
X33526256Y-49818605D01*
X33695774Y-49705337D01*
X33839937Y-49561174D01*
X33953205Y-49391656D01*
X34031226Y-49203298D01*
X34071000Y-49003339D01*
X34071000Y-48799461D01*
X34031226Y-48599502D01*
X33953205Y-48411144D01*
X33839937Y-48241626D01*
X33695774Y-48097463D01*
X33526256Y-47984195D01*
X33337898Y-47906174D01*
X33137939Y-47866400D01*
X32934061Y-47866400D01*
X32734102Y-47906174D01*
X32545744Y-47984195D01*
X32376226Y-48097463D01*
X32232063Y-48241626D01*
X32118795Y-48411144D01*
X32040774Y-48599502D01*
X32001000Y-48799461D01*
X29418259Y-48799461D01*
X29381926Y-48616802D01*
X29303905Y-48428444D01*
X29190637Y-48258926D01*
X29046474Y-48114763D01*
X28876956Y-48001495D01*
X28688598Y-47923474D01*
X28658855Y-47917558D01*
X28605705Y-47789244D01*
X28492437Y-47619726D01*
X28348274Y-47475563D01*
X28178756Y-47362295D01*
X27990398Y-47284274D01*
X27790439Y-47244500D01*
X27586561Y-47244500D01*
X27386602Y-47284274D01*
X27198244Y-47362295D01*
X27028726Y-47475563D01*
X26884563Y-47619726D01*
X26771295Y-47789244D01*
X26693274Y-47977602D01*
X26653500Y-48177561D01*
X26653500Y-48381439D01*
X26693274Y-48581398D01*
X26771295Y-48769756D01*
X26884563Y-48939274D01*
X27028726Y-49083437D01*
X27124645Y-49147528D01*
X27021326Y-49216563D01*
X26877163Y-49360726D01*
X26775417Y-49513000D01*
X23719356Y-49513000D01*
X23695990Y-49456589D01*
X23533475Y-49213368D01*
X23326632Y-49006525D01*
X23152240Y-48890000D01*
X23326632Y-48773475D01*
X23533475Y-48566632D01*
X23695990Y-48323411D01*
X23807932Y-48053158D01*
X23865000Y-47766260D01*
X23865000Y-47473740D01*
X23807932Y-47186842D01*
X23695990Y-46916589D01*
X23533475Y-46673368D01*
X23326632Y-46466525D01*
X23152240Y-46350000D01*
X23326632Y-46233475D01*
X23533475Y-46026632D01*
X23695990Y-45783411D01*
X23807932Y-45513158D01*
X23865000Y-45226260D01*
X23865000Y-44933740D01*
X23807932Y-44646842D01*
X23695990Y-44376589D01*
X23533475Y-44133368D01*
X23326632Y-43926525D01*
X23152240Y-43810000D01*
X23326632Y-43693475D01*
X23533475Y-43486632D01*
X23585973Y-43408063D01*
X24275000Y-43408063D01*
X24275000Y-43611941D01*
X24314774Y-43811900D01*
X24392795Y-44000258D01*
X24506063Y-44169776D01*
X24650226Y-44313939D01*
X24819744Y-44427207D01*
X25008102Y-44505228D01*
X25175140Y-44538454D01*
X25083829Y-44675110D01*
X25005808Y-44863468D01*
X24966034Y-45063427D01*
X24966034Y-45267305D01*
X25005808Y-45467264D01*
X25083829Y-45655622D01*
X25144515Y-45746445D01*
X24988145Y-45850928D01*
X24843982Y-45995091D01*
X24730714Y-46164609D01*
X24652693Y-46352967D01*
X24612919Y-46552926D01*
X24612919Y-46756804D01*
X24652693Y-46956763D01*
X24730714Y-47145121D01*
X24843982Y-47314639D01*
X24988145Y-47458802D01*
X25157663Y-47572070D01*
X25346021Y-47650091D01*
X25545980Y-47689865D01*
X25749858Y-47689865D01*
X25949817Y-47650091D01*
X26138175Y-47572070D01*
X26307693Y-47458802D01*
X26451856Y-47314639D01*
X26565124Y-47145121D01*
X26643145Y-46956763D01*
X26682919Y-46756804D01*
X26682919Y-46552926D01*
X26643145Y-46352967D01*
X26565124Y-46164609D01*
X26504438Y-46073786D01*
X26660808Y-45969303D01*
X26804971Y-45825140D01*
X26918239Y-45655622D01*
X26996260Y-45467264D01*
X27036034Y-45267305D01*
X27036034Y-45063427D01*
X26996260Y-44863468D01*
X26918239Y-44675110D01*
X26804971Y-44505592D01*
X26660808Y-44361429D01*
X26491290Y-44248161D01*
X26302932Y-44170140D01*
X26135894Y-44136914D01*
X26227205Y-44000258D01*
X26251851Y-43940758D01*
X26396298Y-43912026D01*
X26584656Y-43834005D01*
X26754174Y-43720737D01*
X26898337Y-43576574D01*
X27011605Y-43407056D01*
X27089626Y-43218698D01*
X27129400Y-43018739D01*
X27129400Y-42814861D01*
X27089626Y-42614902D01*
X27011605Y-42426544D01*
X26898337Y-42257026D01*
X26754174Y-42112863D01*
X26584656Y-41999595D01*
X26396298Y-41921574D01*
X26196339Y-41881800D01*
X25992461Y-41881800D01*
X25792502Y-41921574D01*
X25604144Y-41999595D01*
X25434626Y-42112863D01*
X25290463Y-42257026D01*
X25177195Y-42426544D01*
X25152549Y-42486044D01*
X25008102Y-42514776D01*
X24819744Y-42592797D01*
X24650226Y-42706065D01*
X24506063Y-42850228D01*
X24392795Y-43019746D01*
X24314774Y-43208104D01*
X24275000Y-43408063D01*
X23585973Y-43408063D01*
X23695990Y-43243411D01*
X23807932Y-42973158D01*
X23865000Y-42686260D01*
X23865000Y-42393740D01*
X23864517Y-42391313D01*
X23978074Y-42315437D01*
X24122237Y-42171274D01*
X24235505Y-42001756D01*
X24242290Y-41985376D01*
X24398261Y-42016400D01*
X24602139Y-42016400D01*
X24802098Y-41976626D01*
X24990456Y-41898605D01*
X25159974Y-41785337D01*
X25304137Y-41641174D01*
X25417405Y-41471656D01*
X25495426Y-41283298D01*
X25535200Y-41083339D01*
X25535200Y-40879461D01*
X25495426Y-40679502D01*
X25417405Y-40491144D01*
X25304137Y-40321626D01*
X25283372Y-40300861D01*
X29542300Y-40300861D01*
X29542300Y-40504739D01*
X29582074Y-40704698D01*
X29660095Y-40893056D01*
X29773363Y-41062574D01*
X29917526Y-41206737D01*
X30087044Y-41320005D01*
X30275402Y-41398026D01*
X30475361Y-41437800D01*
X30679239Y-41437800D01*
X30879198Y-41398026D01*
X31067556Y-41320005D01*
X31237074Y-41206737D01*
X31381237Y-41062574D01*
X31494505Y-40893056D01*
X31572526Y-40704698D01*
X31612300Y-40504739D01*
X31612300Y-40300861D01*
X31605207Y-40265200D01*
X31762139Y-40265200D01*
X31962098Y-40225426D01*
X32150456Y-40147405D01*
X32319974Y-40034137D01*
X32464137Y-39889974D01*
X32577405Y-39720456D01*
X32655426Y-39532098D01*
X32695200Y-39332139D01*
X32695200Y-39128261D01*
X32655426Y-38928302D01*
X32577405Y-38739944D01*
X32464137Y-38570426D01*
X32319974Y-38426263D01*
X32150456Y-38312995D01*
X31962098Y-38234974D01*
X31762139Y-38195200D01*
X31558261Y-38195200D01*
X31358302Y-38234974D01*
X31169944Y-38312995D01*
X31000426Y-38426263D01*
X30856263Y-38570426D01*
X30742995Y-38739944D01*
X30664974Y-38928302D01*
X30625200Y-39128261D01*
X30625200Y-39332139D01*
X30632293Y-39367800D01*
X30475361Y-39367800D01*
X30275402Y-39407574D01*
X30087044Y-39485595D01*
X29917526Y-39598863D01*
X29773363Y-39743026D01*
X29660095Y-39912544D01*
X29582074Y-40100902D01*
X29542300Y-40300861D01*
X25283372Y-40300861D01*
X25159974Y-40177463D01*
X24990456Y-40064195D01*
X24802098Y-39986174D01*
X24602139Y-39946400D01*
X24398261Y-39946400D01*
X24198302Y-39986174D01*
X24009944Y-40064195D01*
X23861609Y-40163309D01*
X23865000Y-40146260D01*
X23865000Y-39853740D01*
X23807932Y-39566842D01*
X23695990Y-39296589D01*
X23533475Y-39053368D01*
X23326632Y-38846525D01*
X23152240Y-38730000D01*
X23326632Y-38613475D01*
X23533475Y-38406632D01*
X23695990Y-38163411D01*
X23807932Y-37893158D01*
X23865000Y-37606260D01*
X23865000Y-37313740D01*
X23849001Y-37233307D01*
X23958061Y-37255000D01*
X24161939Y-37255000D01*
X24361898Y-37215226D01*
X24550256Y-37137205D01*
X24719774Y-37023937D01*
X24863937Y-36879774D01*
X24977205Y-36710256D01*
X25055226Y-36521898D01*
X25095000Y-36321939D01*
X25095000Y-36118061D01*
X25055226Y-35918102D01*
X24977205Y-35729744D01*
X24863937Y-35560226D01*
X24719774Y-35416063D01*
X24550256Y-35302795D01*
X24361898Y-35224774D01*
X24161939Y-35185000D01*
X23958061Y-35185000D01*
X23838807Y-35208721D01*
X23855339Y-35143589D01*
X23870611Y-34851469D01*
X23828599Y-34561981D01*
X23730919Y-34286253D01*
X23657472Y-34148843D01*
X23408397Y-34071208D01*
X22559605Y-34920000D01*
X22573748Y-34934143D01*
X22394143Y-35113748D01*
X22380000Y-35099605D01*
X21531208Y-35948397D01*
X21606729Y-36190689D01*
X21433368Y-36306525D01*
X21226525Y-36513368D01*
X21064010Y-36756589D01*
X20952068Y-37026842D01*
X20895000Y-37313740D01*
X20895000Y-37606260D01*
X20952068Y-37893158D01*
X21064010Y-38163411D01*
X21226525Y-38406632D01*
X21433368Y-38613475D01*
X21607760Y-38730000D01*
X21433368Y-38846525D01*
X21226525Y-39053368D01*
X21064010Y-39296589D01*
X20952068Y-39566842D01*
X20895000Y-39853740D01*
X20895000Y-40146260D01*
X20952068Y-40433158D01*
X21064010Y-40703411D01*
X21226525Y-40946632D01*
X21433368Y-41153475D01*
X21607760Y-41270000D01*
X21433368Y-41386525D01*
X21226525Y-41593368D01*
X21064010Y-41836589D01*
X20952068Y-42106842D01*
X20895000Y-42393740D01*
X20895000Y-42686260D01*
X20952068Y-42973158D01*
X21064010Y-43243411D01*
X21226525Y-43486632D01*
X21433368Y-43693475D01*
X21607760Y-43810000D01*
X21433368Y-43926525D01*
X21226525Y-44133368D01*
X21064010Y-44376589D01*
X20952068Y-44646842D01*
X20895000Y-44933740D01*
X20895000Y-45226260D01*
X20952068Y-45513158D01*
X21064010Y-45783411D01*
X21226525Y-46026632D01*
X21433368Y-46233475D01*
X21607760Y-46350000D01*
X21433368Y-46466525D01*
X21226525Y-46673368D01*
X21064010Y-46916589D01*
X20952068Y-47186842D01*
X20895000Y-47473740D01*
X20895000Y-47766260D01*
X20952068Y-48053158D01*
X21064010Y-48323411D01*
X21226525Y-48566632D01*
X21433368Y-48773475D01*
X21607760Y-48890000D01*
X21433368Y-49006525D01*
X21226525Y-49213368D01*
X21064010Y-49456589D01*
X20952068Y-49726842D01*
X20895000Y-50013740D01*
X20895000Y-50306260D01*
X20952068Y-50593158D01*
X21064010Y-50863411D01*
X21226525Y-51106632D01*
X21433368Y-51313475D01*
X21607760Y-51430000D01*
X21433368Y-51546525D01*
X21226525Y-51753368D01*
X21064010Y-51996589D01*
X20952068Y-52266842D01*
X20895000Y-52553740D01*
X20895000Y-52846260D01*
X20952068Y-53133158D01*
X21064010Y-53403411D01*
X21226525Y-53646632D01*
X21433368Y-53853475D01*
X21607760Y-53970000D01*
X21433368Y-54086525D01*
X21226525Y-54293368D01*
X21064010Y-54536589D01*
X20952068Y-54806842D01*
X20895000Y-55093740D01*
X20895000Y-55386260D01*
X20952068Y-55673158D01*
X21064010Y-55943411D01*
X21226525Y-56186632D01*
X21433368Y-56393475D01*
X21676589Y-56555990D01*
X21939763Y-56665000D01*
X20025000Y-56665000D01*
X20025000Y-34988531D01*
X20889389Y-34988531D01*
X20931401Y-35278019D01*
X21029081Y-35553747D01*
X21102528Y-35691157D01*
X21351603Y-35768792D01*
X22200395Y-34920000D01*
X21351603Y-34071208D01*
X21102528Y-34148843D01*
X20976629Y-34412883D01*
X20904661Y-34696411D01*
X20889389Y-34988531D01*
X20025000Y-34988531D01*
X20025000Y-33408397D01*
X21531208Y-33408397D01*
X21606514Y-33650000D01*
X21531208Y-33891603D01*
X22380000Y-34740395D01*
X23228792Y-33891603D01*
X23153486Y-33650000D01*
X23228792Y-33408397D01*
X22380000Y-32559605D01*
X21531208Y-33408397D01*
X20025000Y-33408397D01*
X20025000Y-32448531D01*
X20889389Y-32448531D01*
X20931401Y-32738019D01*
X21029081Y-33013747D01*
X21102528Y-33151157D01*
X21351603Y-33228792D01*
X22200395Y-32380000D01*
X22559605Y-32380000D01*
X23408397Y-33228792D01*
X23657472Y-33151157D01*
X23783371Y-32887117D01*
X23824226Y-32726161D01*
X26115000Y-32726161D01*
X26115000Y-32930039D01*
X26154774Y-33129998D01*
X26232795Y-33318356D01*
X26346063Y-33487874D01*
X26490226Y-33632037D01*
X26659744Y-33745305D01*
X26848102Y-33823326D01*
X27048061Y-33863100D01*
X27251939Y-33863100D01*
X27451898Y-33823326D01*
X27640256Y-33745305D01*
X27809774Y-33632037D01*
X27953937Y-33487874D01*
X27998379Y-33421361D01*
X31674800Y-33421361D01*
X31674800Y-33625239D01*
X31714574Y-33825198D01*
X31792595Y-34013556D01*
X31905863Y-34183074D01*
X32050026Y-34327237D01*
X32219544Y-34440505D01*
X32407902Y-34518526D01*
X32607861Y-34558300D01*
X32811739Y-34558300D01*
X33011698Y-34518526D01*
X33200056Y-34440505D01*
X33369574Y-34327237D01*
X33513737Y-34183074D01*
X33627005Y-34013556D01*
X33705026Y-33825198D01*
X33744800Y-33625239D01*
X33744800Y-33421361D01*
X33705026Y-33221402D01*
X33627005Y-33033044D01*
X33513737Y-32863526D01*
X33369574Y-32719363D01*
X33200056Y-32606095D01*
X33011698Y-32528074D01*
X32811739Y-32488300D01*
X32607861Y-32488300D01*
X32407902Y-32528074D01*
X32219544Y-32606095D01*
X32050026Y-32719363D01*
X31905863Y-32863526D01*
X31792595Y-33033044D01*
X31714574Y-33221402D01*
X31674800Y-33421361D01*
X27998379Y-33421361D01*
X28067205Y-33318356D01*
X28145226Y-33129998D01*
X28185000Y-32930039D01*
X28185000Y-32726161D01*
X28145226Y-32526202D01*
X28067205Y-32337844D01*
X27953937Y-32168326D01*
X27809774Y-32024163D01*
X27640256Y-31910895D01*
X27451898Y-31832874D01*
X27251939Y-31793100D01*
X27048061Y-31793100D01*
X26848102Y-31832874D01*
X26659744Y-31910895D01*
X26490226Y-32024163D01*
X26346063Y-32168326D01*
X26232795Y-32337844D01*
X26154774Y-32526202D01*
X26115000Y-32726161D01*
X23824226Y-32726161D01*
X23855339Y-32603589D01*
X23870611Y-32311469D01*
X23828599Y-32021981D01*
X23730919Y-31746253D01*
X23657472Y-31608843D01*
X23408397Y-31531208D01*
X22559605Y-32380000D01*
X22200395Y-32380000D01*
X21351603Y-31531208D01*
X21102528Y-31608843D01*
X20976629Y-31872883D01*
X20904661Y-32156411D01*
X20889389Y-32448531D01*
X20025000Y-32448531D01*
X20025000Y-27153740D01*
X20895000Y-27153740D01*
X20895000Y-27446260D01*
X20952068Y-27733158D01*
X21064010Y-28003411D01*
X21226525Y-28246632D01*
X21433368Y-28453475D01*
X21607760Y-28570000D01*
X21433368Y-28686525D01*
X21226525Y-28893368D01*
X21064010Y-29136589D01*
X20952068Y-29406842D01*
X20895000Y-29693740D01*
X20895000Y-29986260D01*
X20952068Y-30273158D01*
X21064010Y-30543411D01*
X21226525Y-30786632D01*
X21433368Y-30993475D01*
X21606729Y-31109311D01*
X21531208Y-31351603D01*
X22380000Y-32200395D01*
X23228792Y-31351603D01*
X23153271Y-31109311D01*
X23326632Y-30993475D01*
X23533475Y-30786632D01*
X23695990Y-30543411D01*
X23807932Y-30273158D01*
X23865000Y-29986260D01*
X23865000Y-29693740D01*
X23859682Y-29667000D01*
X24145000Y-29667000D01*
X24145000Y-30217000D01*
X24191585Y-30435987D01*
X24279997Y-30641678D01*
X24406839Y-30826169D01*
X24567236Y-30982369D01*
X24755024Y-31104276D01*
X24978126Y-31184119D01*
X25153000Y-31057954D01*
X25153000Y-29667000D01*
X24145000Y-29667000D01*
X23859682Y-29667000D01*
X23807932Y-29406842D01*
X23695990Y-29136589D01*
X23533475Y-28893368D01*
X23503107Y-28863000D01*
X24145000Y-28863000D01*
X24145000Y-29413000D01*
X25153000Y-29413000D01*
X25153000Y-28022046D01*
X25407000Y-28022046D01*
X25407000Y-29413000D01*
X25427000Y-29413000D01*
X25427000Y-29667000D01*
X25407000Y-29667000D01*
X25407000Y-31057954D01*
X25581874Y-31184119D01*
X25804976Y-31104276D01*
X25992764Y-30982369D01*
X26153161Y-30826169D01*
X26280003Y-30641678D01*
X26368415Y-30435987D01*
X26415000Y-30217000D01*
X26415000Y-29926904D01*
X26429978Y-29933108D01*
X26615448Y-29970000D01*
X26804552Y-29970000D01*
X26990022Y-29933108D01*
X27164731Y-29860741D01*
X27321964Y-29755681D01*
X27455681Y-29621964D01*
X27560741Y-29464731D01*
X27633108Y-29290022D01*
X27670000Y-29104552D01*
X27670000Y-28915448D01*
X31530000Y-28915448D01*
X31530000Y-29104552D01*
X31566892Y-29290022D01*
X31639259Y-29464731D01*
X31744319Y-29621964D01*
X31878036Y-29755681D01*
X32035269Y-29860741D01*
X32209978Y-29933108D01*
X32395448Y-29970000D01*
X32584552Y-29970000D01*
X32770022Y-29933108D01*
X32785000Y-29926904D01*
X32785000Y-30217000D01*
X32831585Y-30435987D01*
X32919997Y-30641678D01*
X33046839Y-30826169D01*
X33207236Y-30982369D01*
X33395024Y-31104276D01*
X33618126Y-31184119D01*
X33793000Y-31057954D01*
X33793000Y-29667000D01*
X34047000Y-29667000D01*
X34047000Y-31057954D01*
X34221874Y-31184119D01*
X34444976Y-31104276D01*
X34632764Y-30982369D01*
X34793161Y-30826169D01*
X34920003Y-30641678D01*
X35008415Y-30435987D01*
X35055000Y-30217000D01*
X35055000Y-29908531D01*
X36129389Y-29908531D01*
X36171401Y-30198019D01*
X36269081Y-30473747D01*
X36342528Y-30611157D01*
X36591603Y-30688792D01*
X37440395Y-29840000D01*
X37799605Y-29840000D01*
X38648397Y-30688792D01*
X38897472Y-30611157D01*
X39023371Y-30347117D01*
X39095339Y-30063589D01*
X39110611Y-29771469D01*
X39068599Y-29481981D01*
X38970919Y-29206253D01*
X38897472Y-29068843D01*
X38648397Y-28991208D01*
X37799605Y-29840000D01*
X37440395Y-29840000D01*
X36591603Y-28991208D01*
X36342528Y-29068843D01*
X36216629Y-29332883D01*
X36144661Y-29616411D01*
X36129389Y-29908531D01*
X35055000Y-29908531D01*
X35055000Y-29667000D01*
X34047000Y-29667000D01*
X33793000Y-29667000D01*
X33773000Y-29667000D01*
X33773000Y-29413000D01*
X33793000Y-29413000D01*
X33793000Y-28022046D01*
X34047000Y-28022046D01*
X34047000Y-29413000D01*
X35055000Y-29413000D01*
X35055000Y-28863000D01*
X35008415Y-28644013D01*
X34920003Y-28438322D01*
X34793161Y-28253831D01*
X34632764Y-28097631D01*
X34444976Y-27975724D01*
X34221874Y-27895881D01*
X34047000Y-28022046D01*
X33793000Y-28022046D01*
X33618126Y-27895881D01*
X33395024Y-27975724D01*
X33207236Y-28097631D01*
X33062884Y-28238206D01*
X32944731Y-28159259D01*
X32770022Y-28086892D01*
X32584552Y-28050000D01*
X32395448Y-28050000D01*
X32209978Y-28086892D01*
X32035269Y-28159259D01*
X31878036Y-28264319D01*
X31744319Y-28398036D01*
X31639259Y-28555269D01*
X31566892Y-28729978D01*
X31530000Y-28915448D01*
X27670000Y-28915448D01*
X27633108Y-28729978D01*
X27560741Y-28555269D01*
X27455681Y-28398036D01*
X27321964Y-28264319D01*
X27164731Y-28159259D01*
X26990022Y-28086892D01*
X26804552Y-28050000D01*
X26615448Y-28050000D01*
X26429978Y-28086892D01*
X26255269Y-28159259D01*
X26137116Y-28238206D01*
X25992764Y-28097631D01*
X25804976Y-27975724D01*
X25581874Y-27895881D01*
X25407000Y-28022046D01*
X25153000Y-28022046D01*
X24978126Y-27895881D01*
X24755024Y-27975724D01*
X24567236Y-28097631D01*
X24406839Y-28253831D01*
X24279997Y-28438322D01*
X24191585Y-28644013D01*
X24145000Y-28863000D01*
X23503107Y-28863000D01*
X23326632Y-28686525D01*
X23152240Y-28570000D01*
X23326632Y-28453475D01*
X23533475Y-28246632D01*
X23695990Y-28003411D01*
X23807932Y-27733158D01*
X23865000Y-27446260D01*
X23865000Y-27153740D01*
X36135000Y-27153740D01*
X36135000Y-27446260D01*
X36192068Y-27733158D01*
X36304010Y-28003411D01*
X36466525Y-28246632D01*
X36673368Y-28453475D01*
X36846729Y-28569311D01*
X36771208Y-28811603D01*
X37620000Y-29660395D01*
X38468792Y-28811603D01*
X38393271Y-28569311D01*
X38566632Y-28453475D01*
X38773475Y-28246632D01*
X38935990Y-28003411D01*
X39047932Y-27733158D01*
X39105000Y-27446260D01*
X39105000Y-27153740D01*
X39047932Y-26866842D01*
X38935990Y-26596589D01*
X38773475Y-26353368D01*
X38566632Y-26146525D01*
X38323411Y-25984010D01*
X38053158Y-25872068D01*
X37766260Y-25815000D01*
X37473740Y-25815000D01*
X37186842Y-25872068D01*
X36916589Y-25984010D01*
X36673368Y-26146525D01*
X36466525Y-26353368D01*
X36304010Y-26596589D01*
X36192068Y-26866842D01*
X36135000Y-27153740D01*
X23865000Y-27153740D01*
X23807932Y-26866842D01*
X23695990Y-26596589D01*
X23533475Y-26353368D01*
X23326632Y-26146525D01*
X23083411Y-25984010D01*
X22813158Y-25872068D01*
X22526260Y-25815000D01*
X22233740Y-25815000D01*
X21946842Y-25872068D01*
X21676589Y-25984010D01*
X21433368Y-26146525D01*
X21226525Y-26353368D01*
X21064010Y-26596589D01*
X20952068Y-26866842D01*
X20895000Y-27153740D01*
X20025000Y-27153740D01*
X20025000Y-25487000D01*
X24145000Y-25487000D01*
X24145000Y-25787000D01*
X24191585Y-26005987D01*
X24279997Y-26211678D01*
X24406839Y-26396169D01*
X24567236Y-26552369D01*
X24755024Y-26674276D01*
X24978126Y-26754119D01*
X25153000Y-26627954D01*
X25153000Y-25487000D01*
X25407000Y-25487000D01*
X25407000Y-26627954D01*
X25581874Y-26754119D01*
X25804976Y-26674276D01*
X25992764Y-26552369D01*
X26153161Y-26396169D01*
X26280003Y-26211678D01*
X26368415Y-26005987D01*
X26415000Y-25787000D01*
X26415000Y-25487000D01*
X32785000Y-25487000D01*
X32785000Y-25787000D01*
X32831585Y-26005987D01*
X32919997Y-26211678D01*
X33046839Y-26396169D01*
X33207236Y-26552369D01*
X33395024Y-26674276D01*
X33618126Y-26754119D01*
X33793000Y-26627954D01*
X33793000Y-25487000D01*
X34047000Y-25487000D01*
X34047000Y-26627954D01*
X34221874Y-26754119D01*
X34444976Y-26674276D01*
X34632764Y-26552369D01*
X34793161Y-26396169D01*
X34920003Y-26211678D01*
X35008415Y-26005987D01*
X35055000Y-25787000D01*
X35055000Y-25487000D01*
X34047000Y-25487000D01*
X33793000Y-25487000D01*
X32785000Y-25487000D01*
X26415000Y-25487000D01*
X25407000Y-25487000D01*
X25153000Y-25487000D01*
X24145000Y-25487000D01*
X20025000Y-25487000D01*
X20025000Y-24876023D01*
X20031236Y-24175000D01*
X24559669Y-24175000D01*
X24406839Y-24323831D01*
G37*
X24406839Y-24323831D02*
X24279997Y-24508322D01*
X24191585Y-24714013D01*
X24145000Y-24933000D01*
X24145000Y-25233000D01*
X25153000Y-25233000D01*
X25153000Y-25213000D01*
X25407000Y-25213000D01*
X25407000Y-25233000D01*
X26415000Y-25233000D01*
X26415000Y-24933000D01*
X26368415Y-24714013D01*
X26280003Y-24508322D01*
X26153161Y-24323831D01*
X26000331Y-24175000D01*
X33199669Y-24175000D01*
X33046839Y-24323831D01*
X32919997Y-24508322D01*
X32831585Y-24714013D01*
X32785000Y-24933000D01*
X32785000Y-25233000D01*
X33793000Y-25233000D01*
X33793000Y-25213000D01*
X34047000Y-25213000D01*
X34047000Y-25233000D01*
X35055000Y-25233000D01*
X35055000Y-24933000D01*
X35008415Y-24714013D01*
X34920003Y-24508322D01*
X34793161Y-24323831D01*
X34640331Y-24175000D01*
X39985000Y-24175000D01*
X39985001Y-56665000D01*
X38060237Y-56665000D01*
X38323411Y-56555990D01*
X38566632Y-56393475D01*
X38773475Y-56186632D01*
X38935990Y-55943411D01*
X39047932Y-55673158D01*
X39105000Y-55386260D01*
X39105000Y-55093740D01*
X39047932Y-54806842D01*
X38935990Y-54536589D01*
X38773475Y-54293368D01*
X38566632Y-54086525D01*
X38392240Y-53970000D01*
X38566632Y-53853475D01*
X38773475Y-53646632D01*
X38935990Y-53403411D01*
X39047932Y-53133158D01*
X39105000Y-52846260D01*
X39105000Y-52553740D01*
X39047932Y-52266842D01*
X38935990Y-51996589D01*
X38773475Y-51753368D01*
X38566632Y-51546525D01*
X38392240Y-51430000D01*
X38566632Y-51313475D01*
X38773475Y-51106632D01*
X38935990Y-50863411D01*
X39047932Y-50593158D01*
X39105000Y-50306260D01*
X39105000Y-50013740D01*
X39047932Y-49726842D01*
X38935990Y-49456589D01*
X38773475Y-49213368D01*
X38566632Y-49006525D01*
X38392240Y-48890000D01*
X38566632Y-48773475D01*
X38773475Y-48566632D01*
X38935990Y-48323411D01*
X39047932Y-48053158D01*
X39105000Y-47766260D01*
X39105000Y-47473740D01*
X39047932Y-47186842D01*
X38935990Y-46916589D01*
X38773475Y-46673368D01*
X38566632Y-46466525D01*
X38392240Y-46350000D01*
X38566632Y-46233475D01*
X38773475Y-46026632D01*
X38935990Y-45783411D01*
X39047932Y-45513158D01*
X39105000Y-45226260D01*
X39105000Y-44933740D01*
X39047932Y-44646842D01*
X38935990Y-44376589D01*
X38773475Y-44133368D01*
X38566632Y-43926525D01*
X38392240Y-43810000D01*
X38566632Y-43693475D01*
X38773475Y-43486632D01*
X38935990Y-43243411D01*
X39047932Y-42973158D01*
X39105000Y-42686260D01*
X39105000Y-42393740D01*
X39047932Y-42106842D01*
X38935990Y-41836589D01*
X38773475Y-41593368D01*
X38566632Y-41386525D01*
X38392240Y-41270000D01*
X38566632Y-41153475D01*
X38773475Y-40946632D01*
X38935990Y-40703411D01*
X39047932Y-40433158D01*
X39105000Y-40146260D01*
X39105000Y-39853740D01*
X39047932Y-39566842D01*
X38935990Y-39296589D01*
X38773475Y-39053368D01*
X38566632Y-38846525D01*
X38392240Y-38730000D01*
X38566632Y-38613475D01*
X38773475Y-38406632D01*
X38935990Y-38163411D01*
X39047932Y-37893158D01*
X39105000Y-37606260D01*
X39105000Y-37313740D01*
X39047932Y-37026842D01*
X38935990Y-36756589D01*
X38773475Y-36513368D01*
X38566632Y-36306525D01*
X38392240Y-36190000D01*
X38566632Y-36073475D01*
X38773475Y-35866632D01*
X38935990Y-35623411D01*
X39047932Y-35353158D01*
X39105000Y-35066260D01*
X39105000Y-34773740D01*
X39047932Y-34486842D01*
X38935990Y-34216589D01*
X38773475Y-33973368D01*
X38566632Y-33766525D01*
X38392240Y-33650000D01*
X38566632Y-33533475D01*
X38773475Y-33326632D01*
X38935990Y-33083411D01*
X39047932Y-32813158D01*
X39105000Y-32526260D01*
X39105000Y-32233740D01*
X39047932Y-31946842D01*
X38935990Y-31676589D01*
X38773475Y-31433368D01*
X38566632Y-31226525D01*
X38393271Y-31110689D01*
X38468792Y-30868397D01*
X37620000Y-30019605D01*
X36771208Y-30868397D01*
X36846729Y-31110689D01*
X36673368Y-31226525D01*
X36466525Y-31433368D01*
X36304010Y-31676589D01*
X36192068Y-31946842D01*
X36135000Y-32233740D01*
X36135000Y-32526260D01*
X36192068Y-32813158D01*
X36304010Y-33083411D01*
X36466525Y-33326632D01*
X36673368Y-33533475D01*
X36847760Y-33650000D01*
X36673368Y-33766525D01*
X36466525Y-33973368D01*
X36304010Y-34216589D01*
X36192068Y-34486842D01*
X36135000Y-34773740D01*
X36135000Y-35066260D01*
X36192068Y-35353158D01*
X36304010Y-35623411D01*
X36466525Y-35866632D01*
X36673368Y-36073475D01*
X36847760Y-36190000D01*
X36673368Y-36306525D01*
X36466525Y-36513368D01*
X36304010Y-36756589D01*
X36238661Y-36914357D01*
X36265000Y-36781939D01*
X36265000Y-36578061D01*
X36225226Y-36378102D01*
X36147205Y-36189744D01*
X36033937Y-36020226D01*
X35889774Y-35876063D01*
X35720256Y-35762795D01*
X35531898Y-35684774D01*
X35331939Y-35645000D01*
X35128061Y-35645000D01*
X34928102Y-35684774D01*
X34739744Y-35762795D01*
X34570226Y-35876063D01*
X34426063Y-36020226D01*
X34312795Y-36189744D01*
X34234774Y-36378102D01*
X34195000Y-36578061D01*
X34195000Y-36781939D01*
X34234774Y-36981898D01*
X34312795Y-37170256D01*
X34426063Y-37339774D01*
X34570226Y-37483937D01*
X34739744Y-37597205D01*
X34928102Y-37675226D01*
X35128061Y-37715000D01*
X35331939Y-37715000D01*
X35531898Y-37675226D01*
X35720256Y-37597205D01*
X35889774Y-37483937D01*
X36033937Y-37339774D01*
X36147205Y-37170256D01*
X36178633Y-37094382D01*
X36135000Y-37313740D01*
X36135000Y-37606260D01*
X36192068Y-37893158D01*
X36304010Y-38163411D01*
X36466525Y-38406632D01*
X36673368Y-38613475D01*
X36847760Y-38730000D01*
X36673368Y-38846525D01*
X36466525Y-39053368D01*
X36304010Y-39296589D01*
X36232190Y-39469979D01*
X36226174Y-39463963D01*
X36056656Y-39350695D01*
X35868298Y-39272674D01*
X35668339Y-39232900D01*
X35464461Y-39232900D01*
X35264502Y-39272674D01*
X35076144Y-39350695D01*
X34906626Y-39463963D01*
X34762463Y-39608126D01*
X34649195Y-39777644D01*
X34571174Y-39966002D01*
X34531400Y-40165961D01*
X34531400Y-40369839D01*
X34571174Y-40569798D01*
X34649195Y-40758156D01*
X34762463Y-40927674D01*
X34906626Y-41071837D01*
X35076144Y-41185105D01*
X35264502Y-41263126D01*
X35464461Y-41302900D01*
X35668339Y-41302900D01*
X35868298Y-41263126D01*
X36056656Y-41185105D01*
X36226174Y-41071837D01*
X36370337Y-40927674D01*
X36412097Y-40865175D01*
X36466525Y-40946632D01*
X36673368Y-41153475D01*
X36847760Y-41270000D01*
X36673368Y-41386525D01*
X36466525Y-41593368D01*
X36304010Y-41836589D01*
X36192068Y-42106842D01*
X36135000Y-42393740D01*
X36135000Y-42686260D01*
X36192068Y-42973158D01*
X36254320Y-43123448D01*
X36158298Y-43083674D01*
X35958339Y-43043900D01*
X35754461Y-43043900D01*
X35554502Y-43083674D01*
X35366144Y-43161695D01*
X35196626Y-43274963D01*
X35052463Y-43419126D01*
X34939195Y-43588644D01*
X34861174Y-43777002D01*
X34821400Y-43976961D01*
X34821400Y-44180839D01*
X34861174Y-44380798D01*
X34939195Y-44569156D01*
X35052463Y-44738674D01*
X35196626Y-44882837D01*
X35366144Y-44996105D01*
X35554502Y-45074126D01*
X35754461Y-45113900D01*
X35958339Y-45113900D01*
X36135000Y-45078760D01*
X36135000Y-45226260D01*
X36192068Y-45513158D01*
X36304010Y-45783411D01*
X36466525Y-46026632D01*
X36673368Y-46233475D01*
X36847760Y-46350000D01*
X36794894Y-46385324D01*
X36753210Y-46357472D01*
X36564852Y-46279451D01*
X36364893Y-46239677D01*
X36161015Y-46239677D01*
X35961056Y-46279451D01*
X35772698Y-46357472D01*
X35603180Y-46470740D01*
X35459017Y-46614903D01*
X35345749Y-46784421D01*
X35267728Y-46972779D01*
X35227954Y-47172738D01*
X35227954Y-47358186D01*
X35211939Y-47355000D01*
X35008061Y-47355000D01*
X34808102Y-47394774D01*
X34619744Y-47472795D01*
X34450226Y-47586063D01*
X34306063Y-47730226D01*
X34192795Y-47899744D01*
X34114774Y-48088102D01*
X34075000Y-48288061D01*
X34075000Y-48491939D01*
X34114774Y-48691898D01*
X34192795Y-48880256D01*
X34306063Y-49049774D01*
X34450226Y-49193937D01*
X34619744Y-49307205D01*
X34808102Y-49385226D01*
X35008061Y-49425000D01*
X35211939Y-49425000D01*
X35411898Y-49385226D01*
X35600256Y-49307205D01*
X35769774Y-49193937D01*
X35913937Y-49049774D01*
X36027205Y-48880256D01*
X36105226Y-48691898D01*
X36145000Y-48491939D01*
X36145000Y-48306491D01*
X36161015Y-48309677D01*
X36298321Y-48309677D01*
X36304010Y-48323411D01*
X36466525Y-48566632D01*
X36673368Y-48773475D01*
X36847760Y-48890000D01*
X36673368Y-49006525D01*
X36466525Y-49213368D01*
X36304010Y-49456589D01*
X36192068Y-49726842D01*
X36135000Y-50013740D01*
X36135000Y-50306260D01*
X36192068Y-50593158D01*
X36304010Y-50863411D01*
X36466525Y-51106632D01*
X36673368Y-51313475D01*
X36847760Y-51430000D01*
X36673368Y-51546525D01*
X36466525Y-51753368D01*
X36304010Y-51996589D01*
X36192068Y-52266842D01*
X36135000Y-52553740D01*
X36135000Y-52846260D01*
X36192068Y-53133158D01*
X36304010Y-53403411D01*
X36466525Y-53646632D01*
X36673368Y-53853475D01*
X36847760Y-53970000D01*
X36673368Y-54086525D01*
X36466525Y-54293368D01*
X36346659Y-54472760D01*
X36233475Y-54303368D01*
X36026632Y-54096525D01*
X35783411Y-53934010D01*
X35513158Y-53822068D01*
X35226260Y-53765000D01*
X34933740Y-53765000D01*
X34646842Y-53822068D01*
X34376589Y-53934010D01*
X34133368Y-54096525D01*
X33926525Y-54303368D01*
X33810000Y-54477760D01*
X33693475Y-54303368D01*
X33486632Y-54096525D01*
X33243411Y-53934010D01*
X32973158Y-53822068D01*
X32686260Y-53765000D01*
X32393740Y-53765000D01*
X32106842Y-53822068D01*
X31836589Y-53934010D01*
X31593368Y-54096525D01*
X31386525Y-54303368D01*
X31270000Y-54477760D01*
X31153475Y-54303368D01*
X30946632Y-54096525D01*
X30703411Y-53934010D01*
X30433158Y-53822068D01*
X30146260Y-53765000D01*
X29853740Y-53765000D01*
X29566842Y-53822068D01*
X29296589Y-53934010D01*
X29053368Y-54096525D01*
X28846525Y-54303368D01*
X28730000Y-54477760D01*
X28613475Y-54303368D01*
X28406632Y-54096525D01*
X28163411Y-53934010D01*
X27893158Y-53822068D01*
X27606260Y-53765000D01*
X27313740Y-53765000D01*
X27069304Y-53813622D01*
X27077333Y-53798601D01*
X27084560Y-53774776D01*
X27087000Y-53750000D01*
X27087000Y-51726961D01*
X30894700Y-51726961D01*
X30894700Y-51930839D01*
X30934474Y-52130798D01*
X31012495Y-52319156D01*
X31125763Y-52488674D01*
X31269926Y-52632837D01*
X31439444Y-52746105D01*
X31627802Y-52824126D01*
X31827761Y-52863900D01*
X32031639Y-52863900D01*
X32114828Y-52847353D01*
X32158695Y-52953256D01*
X32271963Y-53122774D01*
X32416126Y-53266937D01*
X32585644Y-53380205D01*
X32774002Y-53458226D01*
X32973961Y-53498000D01*
X33177839Y-53498000D01*
X33377798Y-53458226D01*
X33566156Y-53380205D01*
X33735674Y-53266937D01*
X33879837Y-53122774D01*
X33993105Y-52953256D01*
X34071126Y-52764898D01*
X34110900Y-52564939D01*
X34110900Y-52361061D01*
X34105127Y-52332038D01*
X34163026Y-52389937D01*
X34332544Y-52503205D01*
X34520902Y-52581226D01*
X34720861Y-52621000D01*
X34924739Y-52621000D01*
X35124698Y-52581226D01*
X35313056Y-52503205D01*
X35482574Y-52389937D01*
X35626737Y-52245774D01*
X35740005Y-52076256D01*
X35818026Y-51887898D01*
X35857800Y-51687939D01*
X35857800Y-51484061D01*
X35818026Y-51284102D01*
X35740005Y-51095744D01*
X35626737Y-50926226D01*
X35482574Y-50782063D01*
X35313056Y-50668795D01*
X35124698Y-50590774D01*
X34924739Y-50551000D01*
X34720861Y-50551000D01*
X34520902Y-50590774D01*
X34332544Y-50668795D01*
X34163026Y-50782063D01*
X34018863Y-50926226D01*
X33905595Y-51095744D01*
X33827574Y-51284102D01*
X33787800Y-51484061D01*
X33787800Y-51687939D01*
X33793573Y-51716962D01*
X33735674Y-51659063D01*
X33566156Y-51545795D01*
X33435394Y-51491631D01*
X33500126Y-51335355D01*
X33539900Y-51135396D01*
X33539900Y-50931518D01*
X33500126Y-50731559D01*
X33422105Y-50543201D01*
X33308837Y-50373683D01*
X33164674Y-50229520D01*
X32995156Y-50116252D01*
X32806798Y-50038231D01*
X32606839Y-49998457D01*
X32402961Y-49998457D01*
X32203002Y-50038231D01*
X32014644Y-50116252D01*
X31845126Y-50229520D01*
X31700963Y-50373683D01*
X31587695Y-50543201D01*
X31509674Y-50731559D01*
X31476932Y-50896167D01*
X31439444Y-50911695D01*
X31269926Y-51024963D01*
X31125763Y-51169126D01*
X31012495Y-51338644D01*
X30934474Y-51527002D01*
X30894700Y-51726961D01*
X27087000Y-51726961D01*
X27087000Y-50868319D01*
X27190844Y-50937705D01*
X27379202Y-51015726D01*
X27579161Y-51055500D01*
X27783039Y-51055500D01*
X27982998Y-51015726D01*
X28171356Y-50937705D01*
X28340874Y-50824437D01*
X28373562Y-50791749D01*
X28484544Y-50865905D01*
X28672902Y-50943926D01*
X28872861Y-50983700D01*
X29076739Y-50983700D01*
X29276698Y-50943926D01*
X29465056Y-50865905D01*
X29634574Y-50752637D01*
X29778737Y-50608474D01*
X29892005Y-50438956D01*
X29970026Y-50250598D01*
X30009800Y-50050639D01*
X30009800Y-49846761D01*
X29970026Y-49646802D01*
X29892005Y-49458444D01*
X29778737Y-49288926D01*
X29634574Y-49144763D01*
X29465056Y-49031495D01*
X29421700Y-49013536D01*
X29421700Y-48816761D01*
X29418259Y-48799461D01*
X32001000Y-48799461D01*
X32001000Y-49003339D01*
X32040774Y-49203298D01*
X32118795Y-49391656D01*
X32232063Y-49561174D01*
X32376226Y-49705337D01*
X32545744Y-49818605D01*
X32734102Y-49896626D01*
X32934061Y-49936400D01*
X33137939Y-49936400D01*
X33337898Y-49896626D01*
X33526256Y-49818605D01*
X33695774Y-49705337D01*
X33839937Y-49561174D01*
X33953205Y-49391656D01*
X34031226Y-49203298D01*
X34071000Y-49003339D01*
X34071000Y-48799461D01*
X34031226Y-48599502D01*
X33953205Y-48411144D01*
X33839937Y-48241626D01*
X33695774Y-48097463D01*
X33526256Y-47984195D01*
X33337898Y-47906174D01*
X33137939Y-47866400D01*
X32934061Y-47866400D01*
X32734102Y-47906174D01*
X32545744Y-47984195D01*
X32376226Y-48097463D01*
X32232063Y-48241626D01*
X32118795Y-48411144D01*
X32040774Y-48599502D01*
X32001000Y-48799461D01*
X29418259Y-48799461D01*
X29381926Y-48616802D01*
X29303905Y-48428444D01*
X29190637Y-48258926D01*
X29046474Y-48114763D01*
X28876956Y-48001495D01*
X28688598Y-47923474D01*
X28658855Y-47917558D01*
X28605705Y-47789244D01*
X28492437Y-47619726D01*
X28348274Y-47475563D01*
X28178756Y-47362295D01*
X27990398Y-47284274D01*
X27790439Y-47244500D01*
X27586561Y-47244500D01*
X27386602Y-47284274D01*
X27198244Y-47362295D01*
X27028726Y-47475563D01*
X26884563Y-47619726D01*
X26771295Y-47789244D01*
X26693274Y-47977602D01*
X26653500Y-48177561D01*
X26653500Y-48381439D01*
X26693274Y-48581398D01*
X26771295Y-48769756D01*
X26884563Y-48939274D01*
X27028726Y-49083437D01*
X27124645Y-49147528D01*
X27021326Y-49216563D01*
X26877163Y-49360726D01*
X26775417Y-49513000D01*
X23719356Y-49513000D01*
X23695990Y-49456589D01*
X23533475Y-49213368D01*
X23326632Y-49006525D01*
X23152240Y-48890000D01*
X23326632Y-48773475D01*
X23533475Y-48566632D01*
X23695990Y-48323411D01*
X23807932Y-48053158D01*
X23865000Y-47766260D01*
X23865000Y-47473740D01*
X23807932Y-47186842D01*
X23695990Y-46916589D01*
X23533475Y-46673368D01*
X23326632Y-46466525D01*
X23152240Y-46350000D01*
X23326632Y-46233475D01*
X23533475Y-46026632D01*
X23695990Y-45783411D01*
X23807932Y-45513158D01*
X23865000Y-45226260D01*
X23865000Y-44933740D01*
X23807932Y-44646842D01*
X23695990Y-44376589D01*
X23533475Y-44133368D01*
X23326632Y-43926525D01*
X23152240Y-43810000D01*
X23326632Y-43693475D01*
X23533475Y-43486632D01*
X23585973Y-43408063D01*
X24275000Y-43408063D01*
X24275000Y-43611941D01*
X24314774Y-43811900D01*
X24392795Y-44000258D01*
X24506063Y-44169776D01*
X24650226Y-44313939D01*
X24819744Y-44427207D01*
X25008102Y-44505228D01*
X25175140Y-44538454D01*
X25083829Y-44675110D01*
X25005808Y-44863468D01*
X24966034Y-45063427D01*
X24966034Y-45267305D01*
X25005808Y-45467264D01*
X25083829Y-45655622D01*
X25144515Y-45746445D01*
X24988145Y-45850928D01*
X24843982Y-45995091D01*
X24730714Y-46164609D01*
X24652693Y-46352967D01*
X24612919Y-46552926D01*
X24612919Y-46756804D01*
X24652693Y-46956763D01*
X24730714Y-47145121D01*
X24843982Y-47314639D01*
X24988145Y-47458802D01*
X25157663Y-47572070D01*
X25346021Y-47650091D01*
X25545980Y-47689865D01*
X25749858Y-47689865D01*
X25949817Y-47650091D01*
X26138175Y-47572070D01*
X26307693Y-47458802D01*
X26451856Y-47314639D01*
X26565124Y-47145121D01*
X26643145Y-46956763D01*
X26682919Y-46756804D01*
X26682919Y-46552926D01*
X26643145Y-46352967D01*
X26565124Y-46164609D01*
X26504438Y-46073786D01*
X26660808Y-45969303D01*
X26804971Y-45825140D01*
X26918239Y-45655622D01*
X26996260Y-45467264D01*
X27036034Y-45267305D01*
X27036034Y-45063427D01*
X26996260Y-44863468D01*
X26918239Y-44675110D01*
X26804971Y-44505592D01*
X26660808Y-44361429D01*
X26491290Y-44248161D01*
X26302932Y-44170140D01*
X26135894Y-44136914D01*
X26227205Y-44000258D01*
X26251851Y-43940758D01*
X26396298Y-43912026D01*
X26584656Y-43834005D01*
X26754174Y-43720737D01*
X26898337Y-43576574D01*
X27011605Y-43407056D01*
X27089626Y-43218698D01*
X27129400Y-43018739D01*
X27129400Y-42814861D01*
X27089626Y-42614902D01*
X27011605Y-42426544D01*
X26898337Y-42257026D01*
X26754174Y-42112863D01*
X26584656Y-41999595D01*
X26396298Y-41921574D01*
X26196339Y-41881800D01*
X25992461Y-41881800D01*
X25792502Y-41921574D01*
X25604144Y-41999595D01*
X25434626Y-42112863D01*
X25290463Y-42257026D01*
X25177195Y-42426544D01*
X25152549Y-42486044D01*
X25008102Y-42514776D01*
X24819744Y-42592797D01*
X24650226Y-42706065D01*
X24506063Y-42850228D01*
X24392795Y-43019746D01*
X24314774Y-43208104D01*
X24275000Y-43408063D01*
X23585973Y-43408063D01*
X23695990Y-43243411D01*
X23807932Y-42973158D01*
X23865000Y-42686260D01*
X23865000Y-42393740D01*
X23864517Y-42391313D01*
X23978074Y-42315437D01*
X24122237Y-42171274D01*
X24235505Y-42001756D01*
X24242290Y-41985376D01*
X24398261Y-42016400D01*
X24602139Y-42016400D01*
X24802098Y-41976626D01*
X24990456Y-41898605D01*
X25159974Y-41785337D01*
X25304137Y-41641174D01*
X25417405Y-41471656D01*
X25495426Y-41283298D01*
X25535200Y-41083339D01*
X25535200Y-40879461D01*
X25495426Y-40679502D01*
X25417405Y-40491144D01*
X25304137Y-40321626D01*
X25283372Y-40300861D01*
X29542300Y-40300861D01*
X29542300Y-40504739D01*
X29582074Y-40704698D01*
X29660095Y-40893056D01*
X29773363Y-41062574D01*
X29917526Y-41206737D01*
X30087044Y-41320005D01*
X30275402Y-41398026D01*
X30475361Y-41437800D01*
X30679239Y-41437800D01*
X30879198Y-41398026D01*
X31067556Y-41320005D01*
X31237074Y-41206737D01*
X31381237Y-41062574D01*
X31494505Y-40893056D01*
X31572526Y-40704698D01*
X31612300Y-40504739D01*
X31612300Y-40300861D01*
X31605207Y-40265200D01*
X31762139Y-40265200D01*
X31962098Y-40225426D01*
X32150456Y-40147405D01*
X32319974Y-40034137D01*
X32464137Y-39889974D01*
X32577405Y-39720456D01*
X32655426Y-39532098D01*
X32695200Y-39332139D01*
X32695200Y-39128261D01*
X32655426Y-38928302D01*
X32577405Y-38739944D01*
X32464137Y-38570426D01*
X32319974Y-38426263D01*
X32150456Y-38312995D01*
X31962098Y-38234974D01*
X31762139Y-38195200D01*
X31558261Y-38195200D01*
X31358302Y-38234974D01*
X31169944Y-38312995D01*
X31000426Y-38426263D01*
X30856263Y-38570426D01*
X30742995Y-38739944D01*
X30664974Y-38928302D01*
X30625200Y-39128261D01*
X30625200Y-39332139D01*
X30632293Y-39367800D01*
X30475361Y-39367800D01*
X30275402Y-39407574D01*
X30087044Y-39485595D01*
X29917526Y-39598863D01*
X29773363Y-39743026D01*
X29660095Y-39912544D01*
X29582074Y-40100902D01*
X29542300Y-40300861D01*
X25283372Y-40300861D01*
X25159974Y-40177463D01*
X24990456Y-40064195D01*
X24802098Y-39986174D01*
X24602139Y-39946400D01*
X24398261Y-39946400D01*
X24198302Y-39986174D01*
X24009944Y-40064195D01*
X23861609Y-40163309D01*
X23865000Y-40146260D01*
X23865000Y-39853740D01*
X23807932Y-39566842D01*
X23695990Y-39296589D01*
X23533475Y-39053368D01*
X23326632Y-38846525D01*
X23152240Y-38730000D01*
X23326632Y-38613475D01*
X23533475Y-38406632D01*
X23695990Y-38163411D01*
X23807932Y-37893158D01*
X23865000Y-37606260D01*
X23865000Y-37313740D01*
X23849001Y-37233307D01*
X23958061Y-37255000D01*
X24161939Y-37255000D01*
X24361898Y-37215226D01*
X24550256Y-37137205D01*
X24719774Y-37023937D01*
X24863937Y-36879774D01*
X24977205Y-36710256D01*
X25055226Y-36521898D01*
X25095000Y-36321939D01*
X25095000Y-36118061D01*
X25055226Y-35918102D01*
X24977205Y-35729744D01*
X24863937Y-35560226D01*
X24719774Y-35416063D01*
X24550256Y-35302795D01*
X24361898Y-35224774D01*
X24161939Y-35185000D01*
X23958061Y-35185000D01*
X23838807Y-35208721D01*
X23855339Y-35143589D01*
X23870611Y-34851469D01*
X23828599Y-34561981D01*
X23730919Y-34286253D01*
X23657472Y-34148843D01*
X23408397Y-34071208D01*
X22559605Y-34920000D01*
X22573748Y-34934143D01*
X22394143Y-35113748D01*
X22380000Y-35099605D01*
X21531208Y-35948397D01*
X21606729Y-36190689D01*
X21433368Y-36306525D01*
X21226525Y-36513368D01*
X21064010Y-36756589D01*
X20952068Y-37026842D01*
X20895000Y-37313740D01*
X20895000Y-37606260D01*
X20952068Y-37893158D01*
X21064010Y-38163411D01*
X21226525Y-38406632D01*
X21433368Y-38613475D01*
X21607760Y-38730000D01*
X21433368Y-38846525D01*
X21226525Y-39053368D01*
X21064010Y-39296589D01*
X20952068Y-39566842D01*
X20895000Y-39853740D01*
X20895000Y-40146260D01*
X20952068Y-40433158D01*
X21064010Y-40703411D01*
X21226525Y-40946632D01*
X21433368Y-41153475D01*
X21607760Y-41270000D01*
X21433368Y-41386525D01*
X21226525Y-41593368D01*
X21064010Y-41836589D01*
X20952068Y-42106842D01*
X20895000Y-42393740D01*
X20895000Y-42686260D01*
X20952068Y-42973158D01*
X21064010Y-43243411D01*
X21226525Y-43486632D01*
X21433368Y-43693475D01*
X21607760Y-43810000D01*
X21433368Y-43926525D01*
X21226525Y-44133368D01*
X21064010Y-44376589D01*
X20952068Y-44646842D01*
X20895000Y-44933740D01*
X20895000Y-45226260D01*
X20952068Y-45513158D01*
X21064010Y-45783411D01*
X21226525Y-46026632D01*
X21433368Y-46233475D01*
X21607760Y-46350000D01*
X21433368Y-46466525D01*
X21226525Y-46673368D01*
X21064010Y-46916589D01*
X20952068Y-47186842D01*
X20895000Y-47473740D01*
X20895000Y-47766260D01*
X20952068Y-48053158D01*
X21064010Y-48323411D01*
X21226525Y-48566632D01*
X21433368Y-48773475D01*
X21607760Y-48890000D01*
X21433368Y-49006525D01*
X21226525Y-49213368D01*
X21064010Y-49456589D01*
X20952068Y-49726842D01*
X20895000Y-50013740D01*
X20895000Y-50306260D01*
X20952068Y-50593158D01*
X21064010Y-50863411D01*
X21226525Y-51106632D01*
X21433368Y-51313475D01*
X21607760Y-51430000D01*
X21433368Y-51546525D01*
X21226525Y-51753368D01*
X21064010Y-51996589D01*
X20952068Y-52266842D01*
X20895000Y-52553740D01*
X20895000Y-52846260D01*
X20952068Y-53133158D01*
X21064010Y-53403411D01*
X21226525Y-53646632D01*
X21433368Y-53853475D01*
X21607760Y-53970000D01*
X21433368Y-54086525D01*
X21226525Y-54293368D01*
X21064010Y-54536589D01*
X20952068Y-54806842D01*
X20895000Y-55093740D01*
X20895000Y-55386260D01*
X20952068Y-55673158D01*
X21064010Y-55943411D01*
X21226525Y-56186632D01*
X21433368Y-56393475D01*
X21676589Y-56555990D01*
X21939763Y-56665000D01*
X20025000Y-56665000D01*
X20025000Y-34988531D01*
X20889389Y-34988531D01*
X20931401Y-35278019D01*
X21029081Y-35553747D01*
X21102528Y-35691157D01*
X21351603Y-35768792D01*
X22200395Y-34920000D01*
X21351603Y-34071208D01*
X21102528Y-34148843D01*
X20976629Y-34412883D01*
X20904661Y-34696411D01*
X20889389Y-34988531D01*
X20025000Y-34988531D01*
X20025000Y-33408397D01*
X21531208Y-33408397D01*
X21606514Y-33650000D01*
X21531208Y-33891603D01*
X22380000Y-34740395D01*
X23228792Y-33891603D01*
X23153486Y-33650000D01*
X23228792Y-33408397D01*
X22380000Y-32559605D01*
X21531208Y-33408397D01*
X20025000Y-33408397D01*
X20025000Y-32448531D01*
X20889389Y-32448531D01*
X20931401Y-32738019D01*
X21029081Y-33013747D01*
X21102528Y-33151157D01*
X21351603Y-33228792D01*
X22200395Y-32380000D01*
X22559605Y-32380000D01*
X23408397Y-33228792D01*
X23657472Y-33151157D01*
X23783371Y-32887117D01*
X23824226Y-32726161D01*
X26115000Y-32726161D01*
X26115000Y-32930039D01*
X26154774Y-33129998D01*
X26232795Y-33318356D01*
X26346063Y-33487874D01*
X26490226Y-33632037D01*
X26659744Y-33745305D01*
X26848102Y-33823326D01*
X27048061Y-33863100D01*
X27251939Y-33863100D01*
X27451898Y-33823326D01*
X27640256Y-33745305D01*
X27809774Y-33632037D01*
X27953937Y-33487874D01*
X27998379Y-33421361D01*
X31674800Y-33421361D01*
X31674800Y-33625239D01*
X31714574Y-33825198D01*
X31792595Y-34013556D01*
X31905863Y-34183074D01*
X32050026Y-34327237D01*
X32219544Y-34440505D01*
X32407902Y-34518526D01*
X32607861Y-34558300D01*
X32811739Y-34558300D01*
X33011698Y-34518526D01*
X33200056Y-34440505D01*
X33369574Y-34327237D01*
X33513737Y-34183074D01*
X33627005Y-34013556D01*
X33705026Y-33825198D01*
X33744800Y-33625239D01*
X33744800Y-33421361D01*
X33705026Y-33221402D01*
X33627005Y-33033044D01*
X33513737Y-32863526D01*
X33369574Y-32719363D01*
X33200056Y-32606095D01*
X33011698Y-32528074D01*
X32811739Y-32488300D01*
X32607861Y-32488300D01*
X32407902Y-32528074D01*
X32219544Y-32606095D01*
X32050026Y-32719363D01*
X31905863Y-32863526D01*
X31792595Y-33033044D01*
X31714574Y-33221402D01*
X31674800Y-33421361D01*
X27998379Y-33421361D01*
X28067205Y-33318356D01*
X28145226Y-33129998D01*
X28185000Y-32930039D01*
X28185000Y-32726161D01*
X28145226Y-32526202D01*
X28067205Y-32337844D01*
X27953937Y-32168326D01*
X27809774Y-32024163D01*
X27640256Y-31910895D01*
X27451898Y-31832874D01*
X27251939Y-31793100D01*
X27048061Y-31793100D01*
X26848102Y-31832874D01*
X26659744Y-31910895D01*
X26490226Y-32024163D01*
X26346063Y-32168326D01*
X26232795Y-32337844D01*
X26154774Y-32526202D01*
X26115000Y-32726161D01*
X23824226Y-32726161D01*
X23855339Y-32603589D01*
X23870611Y-32311469D01*
X23828599Y-32021981D01*
X23730919Y-31746253D01*
X23657472Y-31608843D01*
X23408397Y-31531208D01*
X22559605Y-32380000D01*
X22200395Y-32380000D01*
X21351603Y-31531208D01*
X21102528Y-31608843D01*
X20976629Y-31872883D01*
X20904661Y-32156411D01*
X20889389Y-32448531D01*
X20025000Y-32448531D01*
X20025000Y-27153740D01*
X20895000Y-27153740D01*
X20895000Y-27446260D01*
X20952068Y-27733158D01*
X21064010Y-28003411D01*
X21226525Y-28246632D01*
X21433368Y-28453475D01*
X21607760Y-28570000D01*
X21433368Y-28686525D01*
X21226525Y-28893368D01*
X21064010Y-29136589D01*
X20952068Y-29406842D01*
X20895000Y-29693740D01*
X20895000Y-29986260D01*
X20952068Y-30273158D01*
X21064010Y-30543411D01*
X21226525Y-30786632D01*
X21433368Y-30993475D01*
X21606729Y-31109311D01*
X21531208Y-31351603D01*
X22380000Y-32200395D01*
X23228792Y-31351603D01*
X23153271Y-31109311D01*
X23326632Y-30993475D01*
X23533475Y-30786632D01*
X23695990Y-30543411D01*
X23807932Y-30273158D01*
X23865000Y-29986260D01*
X23865000Y-29693740D01*
X23859682Y-29667000D01*
X24145000Y-29667000D01*
X24145000Y-30217000D01*
X24191585Y-30435987D01*
X24279997Y-30641678D01*
X24406839Y-30826169D01*
X24567236Y-30982369D01*
X24755024Y-31104276D01*
X24978126Y-31184119D01*
X25153000Y-31057954D01*
X25153000Y-29667000D01*
X24145000Y-29667000D01*
X23859682Y-29667000D01*
X23807932Y-29406842D01*
X23695990Y-29136589D01*
X23533475Y-28893368D01*
X23503107Y-28863000D01*
X24145000Y-28863000D01*
X24145000Y-29413000D01*
X25153000Y-29413000D01*
X25153000Y-28022046D01*
X25407000Y-28022046D01*
X25407000Y-29413000D01*
X25427000Y-29413000D01*
X25427000Y-29667000D01*
X25407000Y-29667000D01*
X25407000Y-31057954D01*
X25581874Y-31184119D01*
X25804976Y-31104276D01*
X25992764Y-30982369D01*
X26153161Y-30826169D01*
X26280003Y-30641678D01*
X26368415Y-30435987D01*
X26415000Y-30217000D01*
X26415000Y-29926904D01*
X26429978Y-29933108D01*
X26615448Y-29970000D01*
X26804552Y-29970000D01*
X26990022Y-29933108D01*
X27164731Y-29860741D01*
X27321964Y-29755681D01*
X27455681Y-29621964D01*
X27560741Y-29464731D01*
X27633108Y-29290022D01*
X27670000Y-29104552D01*
X27670000Y-28915448D01*
X31530000Y-28915448D01*
X31530000Y-29104552D01*
X31566892Y-29290022D01*
X31639259Y-29464731D01*
X31744319Y-29621964D01*
X31878036Y-29755681D01*
X32035269Y-29860741D01*
X32209978Y-29933108D01*
X32395448Y-29970000D01*
X32584552Y-29970000D01*
X32770022Y-29933108D01*
X32785000Y-29926904D01*
X32785000Y-30217000D01*
X32831585Y-30435987D01*
X32919997Y-30641678D01*
X33046839Y-30826169D01*
X33207236Y-30982369D01*
X33395024Y-31104276D01*
X33618126Y-31184119D01*
X33793000Y-31057954D01*
X33793000Y-29667000D01*
X34047000Y-29667000D01*
X34047000Y-31057954D01*
X34221874Y-31184119D01*
X34444976Y-31104276D01*
X34632764Y-30982369D01*
X34793161Y-30826169D01*
X34920003Y-30641678D01*
X35008415Y-30435987D01*
X35055000Y-30217000D01*
X35055000Y-29908531D01*
X36129389Y-29908531D01*
X36171401Y-30198019D01*
X36269081Y-30473747D01*
X36342528Y-30611157D01*
X36591603Y-30688792D01*
X37440395Y-29840000D01*
X37799605Y-29840000D01*
X38648397Y-30688792D01*
X38897472Y-30611157D01*
X39023371Y-30347117D01*
X39095339Y-30063589D01*
X39110611Y-29771469D01*
X39068599Y-29481981D01*
X38970919Y-29206253D01*
X38897472Y-29068843D01*
X38648397Y-28991208D01*
X37799605Y-29840000D01*
X37440395Y-29840000D01*
X36591603Y-28991208D01*
X36342528Y-29068843D01*
X36216629Y-29332883D01*
X36144661Y-29616411D01*
X36129389Y-29908531D01*
X35055000Y-29908531D01*
X35055000Y-29667000D01*
X34047000Y-29667000D01*
X33793000Y-29667000D01*
X33773000Y-29667000D01*
X33773000Y-29413000D01*
X33793000Y-29413000D01*
X33793000Y-28022046D01*
X34047000Y-28022046D01*
X34047000Y-29413000D01*
X35055000Y-29413000D01*
X35055000Y-28863000D01*
X35008415Y-28644013D01*
X34920003Y-28438322D01*
X34793161Y-28253831D01*
X34632764Y-28097631D01*
X34444976Y-27975724D01*
X34221874Y-27895881D01*
X34047000Y-28022046D01*
X33793000Y-28022046D01*
X33618126Y-27895881D01*
X33395024Y-27975724D01*
X33207236Y-28097631D01*
X33062884Y-28238206D01*
X32944731Y-28159259D01*
X32770022Y-28086892D01*
X32584552Y-28050000D01*
X32395448Y-28050000D01*
X32209978Y-28086892D01*
X32035269Y-28159259D01*
X31878036Y-28264319D01*
X31744319Y-28398036D01*
X31639259Y-28555269D01*
X31566892Y-28729978D01*
X31530000Y-28915448D01*
X27670000Y-28915448D01*
X27633108Y-28729978D01*
X27560741Y-28555269D01*
X27455681Y-28398036D01*
X27321964Y-28264319D01*
X27164731Y-28159259D01*
X26990022Y-28086892D01*
X26804552Y-28050000D01*
X26615448Y-28050000D01*
X26429978Y-28086892D01*
X26255269Y-28159259D01*
X26137116Y-28238206D01*
X25992764Y-28097631D01*
X25804976Y-27975724D01*
X25581874Y-27895881D01*
X25407000Y-28022046D01*
X25153000Y-28022046D01*
X24978126Y-27895881D01*
X24755024Y-27975724D01*
X24567236Y-28097631D01*
X24406839Y-28253831D01*
X24279997Y-28438322D01*
X24191585Y-28644013D01*
X24145000Y-28863000D01*
X23503107Y-28863000D01*
X23326632Y-28686525D01*
X23152240Y-28570000D01*
X23326632Y-28453475D01*
X23533475Y-28246632D01*
X23695990Y-28003411D01*
X23807932Y-27733158D01*
X23865000Y-27446260D01*
X23865000Y-27153740D01*
X36135000Y-27153740D01*
X36135000Y-27446260D01*
X36192068Y-27733158D01*
X36304010Y-28003411D01*
X36466525Y-28246632D01*
X36673368Y-28453475D01*
X36846729Y-28569311D01*
X36771208Y-28811603D01*
X37620000Y-29660395D01*
X38468792Y-28811603D01*
X38393271Y-28569311D01*
X38566632Y-28453475D01*
X38773475Y-28246632D01*
X38935990Y-28003411D01*
X39047932Y-27733158D01*
X39105000Y-27446260D01*
X39105000Y-27153740D01*
X39047932Y-26866842D01*
X38935990Y-26596589D01*
X38773475Y-26353368D01*
X38566632Y-26146525D01*
X38323411Y-25984010D01*
X38053158Y-25872068D01*
X37766260Y-25815000D01*
X37473740Y-25815000D01*
X37186842Y-25872068D01*
X36916589Y-25984010D01*
X36673368Y-26146525D01*
X36466525Y-26353368D01*
X36304010Y-26596589D01*
X36192068Y-26866842D01*
X36135000Y-27153740D01*
X23865000Y-27153740D01*
X23807932Y-26866842D01*
X23695990Y-26596589D01*
X23533475Y-26353368D01*
X23326632Y-26146525D01*
X23083411Y-25984010D01*
X22813158Y-25872068D01*
X22526260Y-25815000D01*
X22233740Y-25815000D01*
X21946842Y-25872068D01*
X21676589Y-25984010D01*
X21433368Y-26146525D01*
X21226525Y-26353368D01*
X21064010Y-26596589D01*
X20952068Y-26866842D01*
X20895000Y-27153740D01*
X20025000Y-27153740D01*
X20025000Y-25487000D01*
X24145000Y-25487000D01*
X24145000Y-25787000D01*
X24191585Y-26005987D01*
X24279997Y-26211678D01*
X24406839Y-26396169D01*
X24567236Y-26552369D01*
X24755024Y-26674276D01*
X24978126Y-26754119D01*
X25153000Y-26627954D01*
X25153000Y-25487000D01*
X25407000Y-25487000D01*
X25407000Y-26627954D01*
X25581874Y-26754119D01*
X25804976Y-26674276D01*
X25992764Y-26552369D01*
X26153161Y-26396169D01*
X26280003Y-26211678D01*
X26368415Y-26005987D01*
X26415000Y-25787000D01*
X26415000Y-25487000D01*
X32785000Y-25487000D01*
X32785000Y-25787000D01*
X32831585Y-26005987D01*
X32919997Y-26211678D01*
X33046839Y-26396169D01*
X33207236Y-26552369D01*
X33395024Y-26674276D01*
X33618126Y-26754119D01*
X33793000Y-26627954D01*
X33793000Y-25487000D01*
X34047000Y-25487000D01*
X34047000Y-26627954D01*
X34221874Y-26754119D01*
X34444976Y-26674276D01*
X34632764Y-26552369D01*
X34793161Y-26396169D01*
X34920003Y-26211678D01*
X35008415Y-26005987D01*
X35055000Y-25787000D01*
X35055000Y-25487000D01*
X34047000Y-25487000D01*
X33793000Y-25487000D01*
X32785000Y-25487000D01*
X26415000Y-25487000D01*
X25407000Y-25487000D01*
X25153000Y-25487000D01*
X24145000Y-25487000D01*
X20025000Y-25487000D01*
X20025000Y-24876023D01*
X20031236Y-24175000D01*
X24559669Y-24175000D01*
X24406839Y-24323831D01*
M02*
